<?xml version="1.0" encoding="UTF-8"?>
<!DOCTYPE svg PUBLIC "-//W3C//DTD SVG 1.1//EN" "http://www.w3.org/Graphics/SVG/1.1/DTD/svg11.dtd">
<!-- Creator: CorelDRAW 2021 (64 Bit) -->
<svg xmlns="http://www.w3.org/2000/svg" xml:space="preserve" width="200.681mm" height="48.702mm" version="1.1" style="shape-rendering:geometricPrecision; text-rendering:geometricPrecision; image-rendering:optimizeQuality; fill-rule:evenodd; clip-rule:evenodd"
viewBox="0 0 20068.1 4870.2"
 xmlns:xlink="http://www.w3.org/1999/xlink"
 xmlns:xodm="http://www.corel.com/coreldraw/odm/2003">
 <defs>
  <style type="text/css">
   <![CDATA[
    .fil2 {fill:#006298}
    .fil1 {fill:#006298;fill-rule:nonzero}
    .fil0 {fill:white;fill-rule:nonzero}
   ]]>
  </style>
 </defs>
 <g id="Camada_x0020_1">
  <metadata id="CorelCorpID_0Corel-Layer"/>
  <g id="_1738450468176">
   <g data-paper-data="{&quot;textHeightFactor&quot;:0.5071488773418695,&quot;isSecondaryText&quot;:true}">
    <path class="fil0" d="M6081.97 4225.87c0,18.01 -2.25,34.4 -6.76,49.17 -4.5,14.77 -11.3,27.43 -20.38,37.99 -9.08,10.56 -20.49,18.75 -34.22,24.59 -13.73,5.83 -29.9,8.75 -48.51,8.75 -8.42,0 -16.72,-0.44 -24.92,-1.33 -8.2,-0.89 -16.72,-2.36 -25.58,-4.43l3.99 -43.63c0.3,-3.84 1.81,-6.94 4.54,-9.3 2.73,-2.36 6.53,-3.54 11.41,-3.54 2.51,0 5.61,0.41 9.3,1.22 3.69,0.81 8.12,1.22 13.29,1.22 7.24,0 13.55,-1 18.94,-2.99 5.39,-1.99 9.86,-5.32 13.4,-9.97 3.54,-4.65 6.2,-10.74 7.97,-18.27 1.77,-7.53 2.66,-16.83 2.66,-27.91l0 -207.31 74.87 -0.03 0 205.77z" data-paper-data="{&quot;glyphName&quot;:&quot;J&quot;,&quot;glyphIndex&quot;:0,&quot;firstGlyphOfWord&quot;:true,&quot;word&quot;:1}"/>
    <path class="fil0" d="M6361.64 4283.67c10.04,0 19.01,-1.66 26.91,-4.98 7.9,-3.32 14.58,-8.08 20.04,-14.29 5.46,-6.2 9.63,-13.77 12.51,-22.7 2.88,-8.93 4.32,-19.08 4.32,-30.45l0 -191.14 74.87 -0.01 0 191.14c0,19.79 -3.21,37.95 -9.63,54.49 -6.42,16.54 -15.62,30.79 -27.58,42.75 -11.96,11.96 -26.5,21.26 -43.63,27.91 -17.13,6.64 -36.4,9.97 -57.81,9.97 -21.56,0 -40.9,-3.32 -58.03,-9.97 -17.13,-6.64 -31.67,-15.95 -43.63,-27.91 -11.96,-11.96 -21.11,-26.21 -27.46,-42.75 -6.35,-16.54 -9.52,-34.7 -9.52,-54.49l0 -191.14 74.85 0 0 190.92c0,11.37 1.44,21.52 4.32,30.45 2.88,8.93 7.05,16.54 12.51,22.81 5.46,6.28 12.14,11.07 20.04,14.4 7.9,3.32 16.87,4.98 26.91,4.98l0.01 0.01z" data-paper-data="{&quot;glyphName&quot;:&quot;U&quot;,&quot;glyphIndex&quot;:1,&quot;word&quot;:1}"/>
    <path class="fil0" d="M6680.73 4020.1c3.25,0 5.98,0.15 8.2,0.44 2.21,0.3 4.21,0.85 5.98,1.66 1.77,0.81 3.47,1.96 5.09,3.43 1.62,1.48 3.47,3.47 5.54,5.98l153.27 193.8c-0.59,-6.2 -1.03,-12.22 -1.33,-18.05 -0.3,-5.83 -0.44,-11.33 -0.44,-16.5l0 -170.77 66 0.01 0 322.71 -38.98 0c-5.76,0 -10.63,-0.89 -14.62,-2.66 -3.99,-1.77 -7.83,-5.02 -11.52,-9.75l-152.16 -192.25c0.44,5.61 0.81,11.11 1.11,16.5 0.3,5.39 0.44,10.45 0.44,15.17l0 172.98 -66.01 0.01 0 -322.71 39.43 0z" data-paper-data="{&quot;glyphName&quot;:&quot;N&quot;,&quot;glyphIndex&quot;:2,&quot;word&quot;:1}"/>
    <polygon class="fil0" points="7302.81,4020.1 7302.81,4079.46 7212,4079.46 7212,4342.81 7137.14,4342.81 7137.14,4079.46 7046.33,4079.46 7046.33,4020.1 " data-paper-data="{&quot;glyphName&quot;:&quot;T&quot;,&quot;glyphIndex&quot;:3,&quot;word&quot;:1}"/>
    <polygon class="fil0" points="7633.86,4020.1 7633.86,4077.69 7501.42,4077.69 7501.42,4153 7602.86,4153 7602.86,4208.37 7501.42,4208.37 7501.42,4285.23 7633.86,4285.22 7633.86,4342.81 7426.11,4342.81 7426.11,4020.1 " data-paper-data="{&quot;glyphName&quot;:&quot;E&quot;,&quot;glyphIndex&quot;:4,&quot;word&quot;:1}"/>
    <path class="fil0" d="M7948.53 4085.66c-2.21,3.54 -4.54,6.2 -6.98,7.97 -2.44,1.77 -5.57,2.66 -9.41,2.66 -3.4,0 -7.05,-1.07 -10.96,-3.21 -3.91,-2.14 -8.34,-4.54 -13.29,-7.2 -4.95,-2.66 -10.59,-5.06 -16.94,-7.2 -6.35,-2.14 -13.58,-3.21 -21.71,-3.21 -14.03,0 -24.47,2.99 -31.34,8.97 -6.87,5.98 -10.3,14.06 -10.3,24.25 0,6.5 2.07,11.89 6.2,16.17 4.13,4.28 9.56,7.97 16.28,11.07 6.72,3.1 14.4,5.94 23.03,8.53 8.64,2.58 17.46,5.46 26.47,8.64 9.01,3.17 17.83,6.9 26.47,11.19 8.64,4.28 16.32,9.75 23.03,16.39 6.72,6.64 12.14,14.73 16.28,24.25 4.13,9.52 6.2,21 6.2,34.44 0,14.91 -2.58,28.87 -7.75,41.86 -5.17,12.99 -12.66,24.33 -22.48,34 -9.82,9.67 -21.93,17.28 -36.32,22.81 -14.4,5.54 -30.75,8.31 -49.06,8.31 -10.04,0 -20.27,-1.03 -30.68,-3.1 -10.41,-2.07 -20.49,-4.98 -30.23,-8.75 -9.75,-3.77 -18.9,-8.23 -27.46,-13.4 -8.56,-5.17 -16.02,-10.93 -22.37,-17.28l22.15 -34.99c1.62,-2.66 3.91,-4.8 6.87,-6.42 2.95,-1.62 6.13,-2.44 9.52,-2.44 4.43,0 8.9,1.4 13.4,4.21 4.5,2.81 9.6,5.91 15.28,9.3 5.68,3.4 12.22,6.5 19.6,9.3 7.38,2.81 16.09,4.21 26.14,4.21 13.58,0 24.14,-2.99 31.67,-8.97 7.53,-5.98 11.3,-15.47 11.3,-28.46 0,-7.53 -2.07,-13.66 -6.2,-18.38 -4.13,-4.73 -9.56,-8.64 -16.28,-11.74 -6.72,-3.1 -14.36,-5.83 -22.92,-8.2 -8.56,-2.36 -17.35,-4.98 -26.36,-7.86 -9.01,-2.88 -17.79,-6.42 -26.36,-10.63 -8.56,-4.21 -16.21,-9.75 -22.92,-16.61 -6.72,-6.87 -12.14,-15.43 -16.28,-25.69 -4.13,-10.26 -6.2,-22.92 -6.2,-37.99 0,-12.11 2.44,-23.92 7.31,-35.44 4.87,-11.52 12.03,-21.78 21.48,-30.79 9.45,-9.01 21.04,-16.21 34.77,-21.59 13.73,-5.39 29.46,-8.08 47.18,-8.08 9.89,0 19.53,0.78 28.9,2.33 9.38,1.55 18.27,3.84 26.69,6.87 8.42,3.03 16.28,6.64 23.59,10.85 7.31,4.21 13.84,8.97 19.6,14.29l-18.61 34.76z" data-paper-data="{&quot;glyphName&quot;:&quot;S&quot;,&quot;glyphIndex&quot;:5,&quot;lastGlyphOfWord&quot;:true,&quot;word&quot;:1}"/>
    <path class="fil0" d="M8318.26 4020.1c3.25,0 5.98,0.15 8.2,0.44 2.21,0.3 4.21,0.85 5.98,1.66 1.77,0.81 3.47,1.96 5.09,3.43 1.62,1.48 3.47,3.47 5.54,5.98l153.27 193.8c-0.59,-6.2 -1.03,-12.22 -1.33,-18.05 -0.3,-5.83 -0.44,-11.33 -0.44,-16.5l0 -170.77 66 0.01 0 322.71 -38.98 0c-5.76,0 -10.63,-0.89 -14.62,-2.66 -3.99,-1.77 -7.83,-5.02 -11.52,-9.75l-152.16 -192.25c0.44,5.61 0.81,11.11 1.11,16.5 0.3,5.39 0.44,10.45 0.44,15.17l0 172.98 -66 0.01 0 -322.71 39.42 0z" data-paper-data="{&quot;glyphName&quot;:&quot;N&quot;,&quot;glyphIndex&quot;:6,&quot;firstGlyphOfWord&quot;:true,&quot;word&quot;:2}"/>
    <path class="fil0" d="M9006.35 4342.81l-58.03 0c-6.5,0 -11.85,-1.51 -16.06,-4.54 -4.21,-3.03 -7.12,-6.9 -8.75,-11.63l-19.05 -56.26 -122.7 0 -19.05 56.26c-1.48,4.13 -4.36,7.86 -8.64,11.19 -4.28,3.32 -9.52,4.98 -15.73,4.98l-58.46 0 124.92 -322.71 76.63 0 124.92 322.71zm-207.31 -123.37l88.15 0 -29.68 -88.37c-1.92,-5.61 -4.17,-12.22 -6.76,-19.82 -2.58,-7.6 -5.13,-15.84 -7.64,-24.7 -2.36,9.01 -4.8,17.35 -7.31,25.03 -2.51,7.68 -4.87,14.32 -7.09,19.93l-29.67 87.93z" data-paper-data="{&quot;glyphName&quot;:&quot;A&quot;,&quot;glyphIndex&quot;:7,&quot;lastGlyphOfWord&quot;:true,&quot;word&quot;:2}"/>
    <path class="fil0" d="M9595.36 4181.35c0,23.33 -4.02,44.85 -12.07,64.56 -8.05,19.71 -19.38,36.77 -34,51.16 -14.62,14.4 -32.23,25.62 -52.82,33.67 -20.6,8.05 -43.45,12.07 -68.55,12.07l-125.37 0 0 -322.71 125.37 0c25.1,0 47.95,4.06 68.55,12.18 20.6,8.12 38.21,19.34 52.82,33.67 14.62,14.32 25.95,31.34 34,51.05 8.05,19.71 12.07,41.16 12.07,64.34l0 0.01zm-76.63 0c0,-15.95 -2.07,-30.34 -6.2,-43.19 -4.13,-12.85 -10.08,-23.74 -17.83,-32.67 -7.75,-8.93 -17.24,-15.8 -28.46,-20.6 -11.22,-4.8 -23.99,-7.2 -38.32,-7.2l-50.06 0 0 207.53 50.06 0c14.32,0 27.1,-2.4 38.32,-7.2 11.22,-4.8 20.71,-11.66 28.46,-20.6 7.75,-8.93 13.7,-19.82 17.83,-32.67 4.13,-12.85 6.2,-27.32 6.2,-43.41l0 0.01z" data-paper-data="{&quot;glyphName&quot;:&quot;D&quot;,&quot;glyphIndex&quot;:8,&quot;firstGlyphOfWord&quot;:true,&quot;word&quot;:3}"/>
    <polygon class="fil0" points="9805.48,4342.81 9730.17,4342.81 9730.17,4020.1 9805.48,4020.1 " data-paper-data="{&quot;glyphName&quot;:&quot;I&quot;,&quot;glyphIndex&quot;:9,&quot;word&quot;:3}"/>
    <path class="fil0" d="M9930.99 4020.1l60.24 0c6.5,0 11.81,1.48 15.95,4.43 4.13,2.95 7.09,6.87 8.86,11.74l62.46 172.76c2.81,7.53 5.65,15.73 8.53,24.59 2.88,8.86 5.57,18.16 8.08,27.91 2.07,-9.75 4.47,-19.05 7.2,-27.91 2.73,-8.86 5.43,-17.05 8.08,-24.59l62.02 -172.76c1.48,-4.13 4.36,-7.86 8.64,-11.19 4.28,-3.32 9.52,-4.98 15.73,-4.98l60.68 0 -129.35 322.71 -67.77 0 -129.35 -322.71z" data-paper-data="{&quot;glyphName&quot;:&quot;V&quot;,&quot;glyphIndex&quot;:10,&quot;word&quot;:3}"/>
    <polygon class="fil0" points="10584.08,4020.1 10584.08,4077.69 10451.63,4077.69 10451.63,4153 10553.07,4153 10553.07,4208.37 10451.63,4208.37 10451.63,4285.23 10584.08,4285.22 10584.08,4342.81 10376.33,4342.81 10376.33,4020.1 " data-paper-data="{&quot;glyphName&quot;:&quot;E&quot;,&quot;glyphIndex&quot;:11,&quot;word&quot;:3}"/>
    <path class="fil0" d="M10793.76 4223.43l0 119.38 -74.86 0 0 -322.71 104.98 0c23.33,0 43.23,2.4 59.69,7.2 16.46,4.8 29.9,11.48 40.31,20.04 10.41,8.56 17.98,18.68 22.7,30.34 4.73,11.66 7.09,24.36 7.09,38.1 0,10.48 -1.4,20.38 -4.21,29.68 -2.81,9.3 -6.98,17.9 -12.51,25.8 -5.54,7.9 -12.33,14.95 -20.38,21.15 -8.05,6.2 -17.31,11.3 -27.8,15.28 5.02,2.51 9.71,5.61 14.06,9.3 4.36,3.69 8.16,8.2 11.41,13.51l68.66 112.29 -67.77 0.02c-12.55,0 -21.56,-4.73 -27.02,-14.18l-53.6 -93.69c-2.36,-4.13 -5.13,-7.09 -8.31,-8.86 -3.17,-1.77 -7.64,-2.66 -13.4,-2.66l-19.04 0.01zm0 -51.61l30.12 0c10.19,0 18.86,-1.29 26.02,-3.88 7.16,-2.58 13.03,-6.16 17.61,-10.74 4.58,-4.58 7.9,-9.93 9.97,-16.06 2.07,-6.13 3.1,-12.74 3.1,-19.82 0,-14.18 -4.61,-25.25 -13.84,-33.22 -9.23,-7.97 -23.51,-11.96 -42.86,-11.96l-30.12 0 0 95.68z" data-paper-data="{&quot;glyphName&quot;:&quot;R&quot;,&quot;glyphIndex&quot;:12,&quot;word&quot;:3}"/>
    <path class="fil0" d="M11285.6 4085.66c-2.21,3.54 -4.54,6.2 -6.98,7.97 -2.44,1.77 -5.57,2.66 -9.41,2.66 -3.4,0 -7.05,-1.07 -10.96,-3.21 -3.91,-2.14 -8.34,-4.54 -13.29,-7.2 -4.95,-2.66 -10.59,-5.06 -16.94,-7.2 -6.35,-2.14 -13.58,-3.21 -21.71,-3.21 -14.03,0 -24.47,2.99 -31.34,8.97 -6.87,5.98 -10.3,14.06 -10.3,24.25 0,6.5 2.07,11.89 6.2,16.17 4.13,4.28 9.56,7.97 16.28,11.07 6.72,3.1 14.4,5.94 23.03,8.53 8.64,2.58 17.46,5.46 26.47,8.64 9.01,3.17 17.83,6.9 26.47,11.19 8.64,4.28 16.32,9.75 23.03,16.39 6.72,6.64 12.14,14.73 16.28,24.25 4.13,9.52 6.2,21 6.2,34.44 0,14.91 -2.58,28.87 -7.75,41.86 -5.17,12.99 -12.66,24.33 -22.48,34 -9.82,9.67 -21.93,17.28 -36.32,22.81 -14.4,5.54 -30.75,8.31 -49.06,8.31 -10.04,0 -20.27,-1.03 -30.68,-3.1 -10.41,-2.07 -20.49,-4.98 -30.23,-8.75 -9.75,-3.77 -18.9,-8.23 -27.46,-13.4 -8.56,-5.17 -16.02,-10.93 -22.37,-17.28l22.15 -34.99c1.62,-2.66 3.91,-4.8 6.87,-6.42 2.95,-1.62 6.13,-2.44 9.52,-2.44 4.43,0 8.9,1.4 13.4,4.21 4.5,2.81 9.6,5.91 15.28,9.3 5.68,3.4 12.22,6.5 19.6,9.3 7.38,2.81 16.09,4.21 26.14,4.21 13.58,0 24.14,-2.99 31.67,-8.97 7.53,-5.98 11.3,-15.47 11.3,-28.46 0,-7.53 -2.07,-13.66 -6.2,-18.38 -4.13,-4.73 -9.56,-8.64 -16.28,-11.74 -6.72,-3.1 -14.36,-5.83 -22.92,-8.2 -8.56,-2.36 -17.35,-4.98 -26.36,-7.86 -9.01,-2.88 -17.79,-6.42 -26.36,-10.63 -8.56,-4.21 -16.21,-9.75 -22.92,-16.61 -6.72,-6.87 -12.14,-15.43 -16.28,-25.69 -4.13,-10.26 -6.2,-22.92 -6.2,-37.99 0,-12.11 2.44,-23.92 7.31,-35.44 4.87,-11.52 12.03,-21.78 21.48,-30.79 9.45,-9.01 21.04,-16.21 34.77,-21.59 13.73,-5.39 29.46,-8.08 47.18,-8.08 9.89,0 19.53,0.78 28.9,2.33 9.38,1.55 18.27,3.84 26.69,6.87 8.42,3.03 16.28,6.64 23.59,10.85 7.31,4.21 13.84,8.97 19.6,14.29l-18.61 34.76z" data-paper-data="{&quot;glyphName&quot;:&quot;S&quot;,&quot;glyphIndex&quot;:13,&quot;word&quot;:3}"/>
    <polygon class="fil0" points="11520.08,4342.81 11444.77,4342.81 11444.77,4020.1 11520.08,4020.1 " data-paper-data="{&quot;glyphName&quot;:&quot;I&quot;,&quot;glyphIndex&quot;:14,&quot;word&quot;:3}"/>
    <path class="fil0" d="M11964.98 4181.35c0,23.33 -4.02,44.85 -12.07,64.56 -8.05,19.71 -19.38,36.77 -34,51.16 -14.62,14.4 -32.23,25.62 -52.82,33.67 -20.6,8.05 -43.45,12.07 -68.55,12.07l-125.37 0 0 -322.71 125.36 0c25.1,0 47.95,4.06 68.55,12.18 20.6,8.12 38.21,19.34 52.82,33.67 14.62,14.32 25.95,31.34 34,51.05 8.05,19.71 12.07,41.16 12.07,64.34l0.01 0.01zm-76.64 0c0,-15.95 -2.07,-30.34 -6.2,-43.19 -4.13,-12.85 -10.08,-23.74 -17.83,-32.67 -7.75,-8.93 -17.24,-15.8 -28.46,-20.6 -11.22,-4.8 -23.99,-7.2 -38.32,-7.2l-50.06 0 0 207.53 50.06 0c14.32,0 27.1,-2.4 38.32,-7.2 11.22,-4.8 20.71,-11.66 28.46,-20.6 7.75,-8.93 13.7,-19.82 17.83,-32.67 4.13,-12.85 6.2,-27.32 6.2,-43.41l0 0.01z" data-paper-data="{&quot;glyphName&quot;:&quot;D&quot;,&quot;glyphIndex&quot;:15,&quot;word&quot;:3}"/>
    <path class="fil0" d="M12380.19 4342.81l-58.03 0c-6.5,0 -11.85,-1.51 -16.06,-4.54 -4.21,-3.03 -7.12,-6.9 -8.75,-11.63l-19.05 -56.26 -122.7 0 -19.05 56.26c-1.48,4.13 -4.36,7.86 -8.64,11.19 -4.28,3.32 -9.52,4.98 -15.73,4.98l-58.46 0 124.92 -322.71 76.63 0 124.92 322.71zm-207.31 -123.37l88.15 0 -29.68 -88.37c-1.92,-5.61 -4.17,-12.22 -6.76,-19.82 -2.58,-7.6 -5.13,-15.84 -7.64,-24.7 -2.36,9.01 -4.8,17.35 -7.31,25.03 -2.51,7.68 -4.87,14.32 -7.09,19.93l-29.67 87.93z" data-paper-data="{&quot;glyphName&quot;:&quot;A&quot;,&quot;glyphIndex&quot;:16,&quot;word&quot;:3}"/>
    <path class="fil0" d="M12791.42 4181.35c0,23.33 -4.02,44.85 -12.07,64.56 -8.05,19.71 -19.38,36.77 -34,51.16 -14.62,14.4 -32.23,25.62 -52.82,33.67 -20.6,8.05 -43.45,12.07 -68.55,12.07l-125.37 0 0 -322.71 125.37 0c25.1,0 47.95,4.06 68.55,12.18 20.6,8.12 38.21,19.34 52.82,33.67 14.62,14.32 25.95,31.34 34,51.05 8.05,19.71 12.07,41.16 12.07,64.34l0 0.01zm-76.63 0c0,-15.95 -2.07,-30.34 -6.2,-43.19 -4.13,-12.85 -10.08,-23.74 -17.83,-32.67 -7.75,-8.93 -17.24,-15.8 -28.46,-20.6 -11.22,-4.8 -23.99,-7.2 -38.32,-7.2l-50.06 0 0 207.53 50.06 0c14.32,0 27.1,-2.4 38.32,-7.2 11.22,-4.8 20.71,-11.66 28.46,-20.6 7.75,-8.93 13.7,-19.82 17.83,-32.67 4.13,-12.85 6.2,-27.32 6.2,-43.41l0 0.01z" data-paper-data="{&quot;glyphName&quot;:&quot;D&quot;,&quot;glyphIndex&quot;:17,&quot;word&quot;:3}"/>
    <polygon class="fil0" points="13127.34,4020.1 13127.34,4077.69 12994.89,4077.69 12994.89,4153 13096.34,4153 13096.34,4208.37 12994.89,4208.37 12994.89,4285.23 13127.34,4285.22 13127.34,4342.81 12919.59,4342.81 12919.59,4020.1 " data-paper-data="{&quot;glyphName&quot;:&quot;E&quot;,&quot;glyphIndex&quot;:18,&quot;word&quot;:3}"/>
    <path class="fil0" d="M13250.64 4303.83c0,-4.73 0.89,-9.12 2.66,-13.18 1.77,-4.06 4.32,-7.6 7.64,-10.63 3.32,-3.03 7.24,-5.43 11.74,-7.2 4.5,-1.77 9.56,-2.66 15.17,-2.66 6.64,0 12.4,1.14 17.28,3.43 4.87,2.29 8.93,5.39 12.18,9.3 3.25,3.91 5.65,8.42 7.2,13.51 1.55,5.09 2.33,10.45 2.33,16.06 0,7.38 -1.18,15.25 -3.54,23.59 -2.36,8.34 -5.87,16.72 -10.52,25.14 -4.65,8.42 -10.45,16.69 -17.39,24.81 -6.94,8.12 -14.91,15.5 -23.92,22.15l-11.96 -10.63c-1.62,-1.62 -2.84,-3.14 -3.65,-4.54 -0.81,-1.4 -1.22,-3.14 -1.22,-5.2 0,-1.48 0.52,-3.06 1.55,-4.76 1.03,-1.7 2.29,-3.21 3.77,-4.54 1.77,-1.77 3.84,-3.91 6.2,-6.42 2.36,-2.51 4.73,-5.32 7.09,-8.42 2.36,-3.1 4.54,-6.5 6.53,-10.19 1.99,-3.69 3.51,-7.6 4.54,-11.74 -5.17,-0.44 -9.82,-1.7 -13.95,-3.77 -4.13,-2.07 -7.64,-4.8 -10.52,-8.2 -2.88,-3.4 -5.13,-7.27 -6.76,-11.63 -1.62,-4.36 -2.44,-9.12 -2.44,-14.29l-0.01 0.01z" data-paper-data="{&quot;glyphName&quot;:&quot;,&quot;,&quot;glyphIndex&quot;:19,&quot;lastGlyphOfWord&quot;:true,&quot;word&quot;:3}"/>
    <path class="fil0" d="M13770.99 4283.67c10.04,0 19.01,-1.66 26.91,-4.98 7.9,-3.32 14.58,-8.08 20.04,-14.29 5.46,-6.2 9.63,-13.77 12.51,-22.7 2.88,-8.93 4.32,-19.08 4.32,-30.45l0 -191.14 74.87 -0.01 0 191.14c0,19.79 -3.21,37.95 -9.63,54.49 -6.42,16.54 -15.62,30.79 -27.58,42.75 -11.96,11.96 -26.5,21.26 -43.63,27.91 -17.13,6.64 -36.4,9.97 -57.81,9.97 -21.56,0 -40.9,-3.32 -58.03,-9.97 -17.13,-6.64 -31.67,-15.95 -43.63,-27.91 -11.96,-11.96 -21.11,-26.21 -27.46,-42.75 -6.35,-16.54 -9.52,-34.7 -9.52,-54.49l0 -191.14 74.85 0 0 190.92c0,11.37 1.44,21.52 4.32,30.45 2.88,8.93 7.05,16.54 12.51,22.81 5.46,6.28 12.14,11.07 20.04,14.4 7.9,3.32 16.87,4.98 26.91,4.98l0.01 0.01z" data-paper-data="{&quot;glyphName&quot;:&quot;U&quot;,&quot;glyphIndex&quot;:20,&quot;firstGlyphOfWord&quot;:true,&quot;word&quot;:4}"/>
    <path class="fil0" d="M14090.08 4020.1c3.25,0 5.98,0.15 8.2,0.44 2.21,0.3 4.21,0.85 5.98,1.66 1.77,0.81 3.47,1.96 5.09,3.43 1.62,1.48 3.47,3.47 5.54,5.98l153.27 193.8c-0.59,-6.2 -1.03,-12.22 -1.33,-18.05 -0.3,-5.83 -0.44,-11.33 -0.44,-16.5l0 -170.77 66 0.01 0 322.71 -38.99 0c-5.76,0 -10.63,-0.89 -14.62,-2.66 -3.99,-1.77 -7.83,-5.02 -11.52,-9.75l-152.16 -192.25c0.44,5.61 0.81,11.11 1.11,16.5 0.3,5.39 0.44,10.45 0.44,15.17l0 172.98 -66 0.01 0 -322.71 39.43 0z" data-paper-data="{&quot;glyphName&quot;:&quot;N&quot;,&quot;glyphIndex&quot;:21,&quot;word&quot;:4}"/>
    <polygon class="fil0" points="14559.78,4342.81 14484.47,4342.81 14484.47,4020.1 14559.78,4020.1 " data-paper-data="{&quot;glyphName&quot;:&quot;I&quot;,&quot;glyphIndex&quot;:22,&quot;word&quot;:4}"/>
    <path class="fil0" d="M15004.67 4181.35c0,23.33 -4.02,44.85 -12.07,64.56 -8.05,19.71 -19.38,36.77 -34,51.16 -14.62,14.4 -32.23,25.62 -52.82,33.67 -20.6,8.05 -43.45,12.07 -68.55,12.07l-125.36 0 0 -322.71 125.36 0c25.1,0 47.95,4.06 68.55,12.18 20.6,8.12 38.21,19.34 52.82,33.67 14.62,14.32 25.95,31.34 34,51.05 8.05,19.71 12.07,41.16 12.07,64.34l0 0.01zm-76.63 0c0,-15.95 -2.07,-30.34 -6.2,-43.19 -4.13,-12.85 -10.08,-23.74 -17.83,-32.67 -7.75,-8.93 -17.24,-15.8 -28.46,-20.6 -11.22,-4.8 -23.99,-7.2 -38.32,-7.2l-50.06 0 0 207.53 50.06 0c14.32,0 27.1,-2.4 38.32,-7.2 11.22,-4.8 20.71,-11.66 28.46,-20.6 7.75,-8.93 13.7,-19.82 17.83,-32.67 4.13,-12.85 6.2,-27.32 6.2,-43.41l0 0.01z" data-paper-data="{&quot;glyphName&quot;:&quot;D&quot;,&quot;glyphIndex&quot;:23,&quot;word&quot;:4}"/>
    <polygon class="fil0" points="15340.6,4020.1 15340.6,4077.69 15208.15,4077.69 15208.15,4153 15309.59,4153 15309.59,4208.37 15208.15,4208.37 15208.15,4285.23 15340.6,4285.22 15340.6,4342.81 15132.84,4342.81 15132.84,4020.1 " data-paper-data="{&quot;glyphName&quot;:&quot;E&quot;,&quot;glyphIndex&quot;:24,&quot;word&quot;:4}"/>
    <path class="fil0" d="M15655.26 4085.66c-2.21,3.54 -4.54,6.2 -6.98,7.97 -2.44,1.77 -5.57,2.66 -9.41,2.66 -3.4,0 -7.05,-1.07 -10.96,-3.21 -3.91,-2.14 -8.34,-4.54 -13.29,-7.2 -4.95,-2.66 -10.59,-5.06 -16.94,-7.2 -6.35,-2.14 -13.58,-3.21 -21.71,-3.21 -14.03,0 -24.47,2.99 -31.34,8.97 -6.87,5.98 -10.3,14.06 -10.3,24.25 0,6.5 2.07,11.89 6.2,16.17 4.13,4.28 9.56,7.97 16.28,11.07 6.72,3.1 14.4,5.94 23.03,8.53 8.64,2.58 17.46,5.46 26.47,8.64 9.01,3.17 17.83,6.9 26.47,11.19 8.64,4.28 16.32,9.75 23.03,16.39 6.72,6.64 12.14,14.73 16.28,24.25 4.13,9.52 6.2,21 6.2,34.44 0,14.91 -2.58,28.87 -7.75,41.86 -5.17,12.99 -12.66,24.33 -22.48,34 -9.82,9.67 -21.93,17.28 -36.32,22.81 -14.4,5.54 -30.75,8.31 -49.06,8.31 -10.04,0 -20.27,-1.03 -30.68,-3.1 -10.41,-2.07 -20.49,-4.98 -30.23,-8.75 -9.75,-3.77 -18.9,-8.23 -27.46,-13.4 -8.56,-5.17 -16.02,-10.93 -22.37,-17.28l22.15 -34.99c1.62,-2.66 3.91,-4.8 6.87,-6.42 2.95,-1.62 6.13,-2.44 9.52,-2.44 4.43,0 8.9,1.4 13.4,4.21 4.5,2.81 9.6,5.91 15.28,9.3 5.68,3.4 12.22,6.5 19.6,9.3 7.38,2.81 16.09,4.21 26.14,4.21 13.58,0 24.14,-2.99 31.67,-8.97 7.53,-5.98 11.3,-15.47 11.3,-28.46 0,-7.53 -2.07,-13.66 -6.2,-18.38 -4.13,-4.73 -9.56,-8.64 -16.28,-11.74 -6.72,-3.1 -14.36,-5.83 -22.92,-8.2 -8.56,-2.36 -17.35,-4.98 -26.36,-7.86 -9.01,-2.88 -17.79,-6.42 -26.36,-10.63 -8.56,-4.21 -16.21,-9.75 -22.92,-16.61 -6.72,-6.87 -12.14,-15.43 -16.28,-25.69 -4.13,-10.26 -6.2,-22.92 -6.2,-37.99 0,-12.11 2.44,-23.92 7.31,-35.44 4.87,-11.52 12.03,-21.78 21.48,-30.79 9.45,-9.01 21.04,-16.21 34.77,-21.59 13.73,-5.39 29.46,-8.08 47.18,-8.08 9.89,0 19.53,0.78 28.9,2.33 9.38,1.55 18.27,3.84 26.69,6.87 8.42,3.03 16.28,6.64 23.59,10.85 7.31,4.21 13.84,8.97 19.6,14.29l-18.61 34.76z" data-paper-data="{&quot;glyphName&quot;:&quot;S&quot;,&quot;glyphIndex&quot;:25,&quot;lastGlyphOfWord&quot;:true,&quot;word&quot;:4}"/>
    <path class="fil0" d="M16025 4020.1c3.25,0 5.98,0.15 8.2,0.44 2.21,0.3 4.21,0.85 5.98,1.66 1.77,0.81 3.47,1.96 5.09,3.43 1.62,1.48 3.47,3.47 5.54,5.98l153.27 193.8c-0.59,-6.2 -1.03,-12.22 -1.33,-18.05 -0.3,-5.83 -0.44,-11.33 -0.44,-16.5l0 -170.77 65.99 0.01 0 322.71 -38.98 0c-5.76,0 -10.63,-0.89 -14.62,-2.66 -3.99,-1.77 -7.83,-5.02 -11.52,-9.75l-152.16 -192.25c0.44,5.61 0.81,11.11 1.11,16.5 0.3,5.39 0.44,10.45 0.44,15.17l0 172.98 -66 0.01 0 -322.71 39.43 0z" data-paper-data="{&quot;glyphName&quot;:&quot;N&quot;,&quot;glyphIndex&quot;:26,&quot;firstGlyphOfWord&quot;:true,&quot;word&quot;:5}"/>
    <path class="fil0" d="M16731.25 4181.35c0,23.33 -4.02,45.04 -12.07,65.12 -8.05,20.08 -19.38,37.54 -34,52.38 -14.62,14.84 -32.23,26.47 -52.82,34.88 -20.6,8.42 -43.45,12.62 -68.55,12.62 -25.1,0 -47.99,-4.21 -68.66,-12.62 -20.67,-8.42 -38.35,-20.04 -53.05,-34.88 -14.69,-14.84 -26.06,-32.3 -34.11,-52.38 -8.05,-20.08 -12.07,-41.79 -12.07,-65.12 0,-23.33 4.02,-45.04 12.07,-65.12 8.05,-20.08 19.42,-37.51 34.11,-52.27 14.69,-14.77 32.37,-26.36 53.05,-34.77 20.67,-8.42 43.56,-12.62 68.66,-12.62 25.1,0 47.95,4.25 68.55,12.74 20.6,8.49 38.21,20.12 52.82,34.88 14.62,14.77 25.95,32.19 34,52.27 8.05,20.08 12.07,41.71 12.07,64.9l0 -0.01zm-76.64 0c0,-15.95 -2.07,-30.31 -6.2,-43.08 -4.13,-12.77 -10.08,-23.59 -17.83,-32.45 -7.75,-8.86 -17.24,-15.65 -28.46,-20.38 -11.22,-4.73 -23.99,-7.09 -38.32,-7.09 -14.47,0 -27.35,2.36 -38.65,7.09 -11.3,4.73 -20.82,11.52 -28.57,20.38 -7.75,8.86 -13.7,19.68 -17.83,32.45 -4.13,12.77 -6.2,27.13 -6.2,43.08 0,16.09 2.07,30.53 6.2,43.3 4.13,12.77 10.08,23.59 17.83,32.45 7.75,8.86 17.28,15.62 28.57,20.27 11.3,4.65 24.18,6.98 38.65,6.98 14.32,0 27.1,-2.33 38.32,-6.98 11.22,-4.65 20.71,-11.41 28.46,-20.27 7.75,-8.86 13.7,-19.68 17.83,-32.45 4.13,-12.77 6.2,-27.21 6.2,-43.3z" data-paper-data="{&quot;glyphName&quot;:&quot;O&quot;,&quot;glyphIndex&quot;:27,&quot;lastGlyphOfWord&quot;:true,&quot;word&quot;:5}"/>
    <path class="fil0" d="M17355.69 4181.35c0,23.33 -4.02,45.04 -12.07,65.12 -8.05,20.08 -19.38,37.54 -34,52.38 -14.62,14.84 -32.23,26.47 -52.82,34.88 -20.6,8.42 -43.45,12.62 -68.55,12.62 -25.1,0 -47.99,-4.21 -68.66,-12.62 -20.67,-8.42 -38.35,-20.04 -53.05,-34.88 -14.69,-14.84 -26.06,-32.3 -34.11,-52.38 -8.05,-20.08 -12.07,-41.79 -12.07,-65.12 0,-23.33 4.02,-45.04 12.07,-65.12 8.05,-20.08 19.42,-37.51 34.11,-52.27 14.69,-14.77 32.37,-26.36 53.05,-34.77 20.67,-8.42 43.56,-12.62 68.66,-12.62 25.1,0 47.95,4.25 68.55,12.74 20.6,8.49 38.21,20.12 52.82,34.88 14.62,14.77 25.95,32.19 34,52.27 8.05,20.08 12.07,41.71 12.07,64.9l0 -0.01zm-76.63 0c0,-15.95 -2.07,-30.31 -6.2,-43.08 -4.13,-12.77 -10.08,-23.59 -17.83,-32.45 -7.75,-8.86 -17.24,-15.65 -28.46,-20.38 -11.22,-4.73 -23.99,-7.09 -38.32,-7.09 -14.47,0 -27.35,2.36 -38.65,7.09 -11.3,4.73 -20.82,11.52 -28.57,20.38 -7.75,8.86 -13.7,19.68 -17.83,32.45 -4.13,12.77 -6.2,27.13 -6.2,43.08 0,16.09 2.07,30.53 6.2,43.3 4.13,12.77 10.08,23.59 17.83,32.45 7.75,8.86 17.28,15.62 28.57,20.27 11.3,4.65 24.18,6.98 38.65,6.98 14.32,0 27.1,-2.33 38.32,-6.98 11.22,-4.65 20.71,-11.41 28.46,-20.27 7.75,-8.86 13.7,-19.68 17.83,-32.45 4.13,-12.77 6.2,-27.21 6.2,-43.3z" data-paper-data="{&quot;glyphName&quot;:&quot;O&quot;,&quot;glyphIndex&quot;:28,&quot;firstGlyphOfWord&quot;:true,&quot;word&quot;:6}"/>
    <path class="fil0" d="M17558.72 4223.43l0 119.38 -74.86 0 0 -322.71 104.99 0c23.33,0 43.23,2.4 59.69,7.2 16.46,4.8 29.9,11.48 40.31,20.04 10.41,8.56 17.98,18.68 22.7,30.34 4.73,11.66 7.09,24.36 7.09,38.1 0,10.48 -1.4,20.38 -4.21,29.68 -2.81,9.3 -6.98,17.9 -12.51,25.8 -5.54,7.9 -12.33,14.95 -20.38,21.15 -8.05,6.2 -17.31,11.3 -27.8,15.28 5.02,2.51 9.71,5.61 14.06,9.3 4.36,3.69 8.16,8.2 11.41,13.51l68.66 112.29 -67.77 0.02c-12.55,0 -21.56,-4.73 -27.02,-14.18l-53.6 -93.69c-2.36,-4.13 -5.13,-7.09 -8.31,-8.86 -3.17,-1.77 -7.64,-2.66 -13.4,-2.66l-19.05 0.01zm0 -51.61l30.13 0c10.19,0 18.86,-1.29 26.02,-3.88 7.16,-2.58 13.03,-6.16 17.61,-10.74 4.58,-4.58 7.9,-9.93 9.97,-16.06 2.07,-6.13 3.1,-12.74 3.1,-19.82 0,-14.18 -4.61,-25.25 -13.84,-33.22 -9.23,-7.97 -23.51,-11.96 -42.86,-11.96l-30.13 0 0 95.68z" data-paper-data="{&quot;glyphName&quot;:&quot;R&quot;,&quot;glyphIndex&quot;:29,&quot;word&quot;:6}"/>
    <path class="fil0" d="M18011.59 4288.77c10.34,0 19.49,-0.89 27.46,-2.66 7.97,-1.77 15.5,-4.13 22.59,-7.09l0 -48.95 -31.88 0c-4.73,0 -8.42,-1.26 -11.07,-3.77 -2.66,-2.51 -3.99,-5.68 -3.99,-9.52l0 -41.2 114.72 0.01 0 136.21c-8.27,6.05 -16.87,11.26 -25.8,15.62 -8.93,4.36 -18.46,7.94 -28.57,10.74 -10.11,2.81 -20.89,4.87 -32.34,6.2 -11.44,1.33 -23.74,1.99 -36.88,1.99 -23.63,0 -45.48,-4.17 -65.56,-12.51 -20.08,-8.34 -37.47,-19.86 -52.16,-34.55 -14.69,-14.69 -26.21,-32.12 -34.55,-52.27 -8.34,-20.16 -12.51,-42.05 -12.51,-65.67 0,-24.07 3.99,-46.18 11.96,-66.34 7.97,-20.16 19.38,-37.54 34.22,-52.16 14.84,-14.62 32.78,-25.99 53.82,-34.11 21.04,-8.12 44.56,-12.18 70.54,-12.18 13.44,0 26.06,1.11 37.87,3.32 11.81,2.21 22.7,5.24 32.67,9.08 9.97,3.84 19.08,8.42 27.35,13.73 8.27,5.32 15.65,11.07 22.15,17.28l-21.71 33c-2.07,3.1 -4.54,5.54 -7.42,7.31 -2.88,1.77 -6.02,2.66 -9.41,2.66 -4.43,0 -9.01,-1.48 -13.73,-4.43 -5.91,-3.54 -11.48,-6.61 -16.72,-9.19 -5.24,-2.58 -10.59,-4.69 -16.06,-6.31 -5.46,-1.62 -11.22,-2.81 -17.28,-3.54 -6.05,-0.74 -12.85,-1.11 -20.38,-1.11 -14.03,0 -26.65,2.47 -37.87,7.42 -11.22,4.95 -20.78,11.92 -28.68,20.93 -7.9,9.01 -13.99,19.82 -18.27,32.45 -4.28,12.62 -6.42,26.69 -6.42,42.19 0,17.13 2.36,32.34 7.09,45.63 4.73,13.29 11.26,24.51 19.6,33.67 8.34,9.15 18.24,16.13 29.68,20.93 11.44,4.8 23.96,7.2 37.54,7.2l0 -0.01z" data-paper-data="{&quot;glyphName&quot;:&quot;G&quot;,&quot;glyphIndex&quot;:30,&quot;word&quot;:6}"/>
    <path class="fil0" d="M18401.56 4283.67c10.04,0 19.01,-1.66 26.91,-4.98 7.9,-3.32 14.58,-8.08 20.04,-14.29 5.46,-6.2 9.63,-13.77 12.51,-22.7 2.88,-8.93 4.32,-19.08 4.32,-30.45l0 -191.14 74.87 -0.01 0 191.14c0,19.79 -3.21,37.95 -9.63,54.49 -6.42,16.54 -15.62,30.79 -27.58,42.75 -11.96,11.96 -26.5,21.26 -43.63,27.91 -17.13,6.64 -36.4,9.97 -57.81,9.97 -21.56,0 -40.9,-3.32 -58.03,-9.97 -17.13,-6.64 -31.67,-15.95 -43.63,-27.91 -11.96,-11.96 -21.11,-26.21 -27.46,-42.75 -6.35,-16.54 -9.52,-34.7 -9.52,-54.49l0 -191.14 74.85 0 0 190.92c0,11.37 1.44,21.52 4.32,30.45 2.88,8.93 7.05,16.54 12.51,22.81 5.46,6.28 12.14,11.07 20.04,14.4 7.9,3.32 16.87,4.98 26.91,4.98l0.01 0.01z" data-paper-data="{&quot;glyphName&quot;:&quot;U&quot;,&quot;glyphIndex&quot;:31,&quot;word&quot;:6}"/>
    <polygon class="fil0" points="18756.09,4283.01 18875.69,4283.01 18875.69,4342.81 18681.23,4342.81 18681.23,4020.1 18756.09,4020.1 " data-paper-data="{&quot;glyphName&quot;:&quot;L&quot;,&quot;glyphIndex&quot;:32,&quot;word&quot;:6}"/>
    <polygon class="fil0" points="19285.15,4342.81 19209.84,4342.81 19209.84,4206.37 19078.72,4206.37 19078.72,4342.81 19003.42,4342.81 19003.42,4020.1 19078.72,4020.1 19078.72,4154.99 19209.84,4154.99 19209.84,4020.1 19285.15,4020.1 " data-paper-data="{&quot;glyphName&quot;:&quot;H&quot;,&quot;glyphIndex&quot;:33,&quot;word&quot;:6}"/>
    <path class="fil0" d="M19749.09 4181.35c0,23.33 -4.02,45.04 -12.07,65.12 -8.05,20.08 -19.38,37.54 -34,52.38 -14.62,14.84 -32.23,26.47 -52.82,34.88 -20.6,8.42 -43.45,12.62 -68.55,12.62 -25.1,0 -47.99,-4.21 -68.66,-12.62 -20.67,-8.42 -38.35,-20.04 -53.05,-34.88 -14.69,-14.84 -26.06,-32.3 -34.11,-52.38 -8.05,-20.08 -12.07,-41.79 -12.07,-65.12 0,-23.33 4.02,-45.04 12.07,-65.12 8.05,-20.08 19.42,-37.51 34.11,-52.27 14.69,-14.77 32.37,-26.36 53.05,-34.77 20.67,-8.42 43.56,-12.62 68.66,-12.62 25.1,0 47.95,4.25 68.55,12.74 20.6,8.49 38.21,20.12 52.82,34.88 14.62,14.77 25.95,32.19 34,52.27 8.05,20.08 12.07,41.71 12.07,64.9l0 -0.01zm-76.63 0c0,-15.95 -2.07,-30.31 -6.2,-43.08 -4.13,-12.77 -10.08,-23.59 -17.83,-32.45 -7.75,-8.86 -17.24,-15.65 -28.46,-20.38 -11.22,-4.73 -23.99,-7.09 -38.32,-7.09 -14.47,0 -27.35,2.36 -38.65,7.09 -11.3,4.73 -20.82,11.52 -28.57,20.38 -7.75,8.86 -13.7,19.68 -17.83,32.45 -4.13,12.77 -6.2,27.13 -6.2,43.08 0,16.09 2.07,30.53 6.2,43.3 4.13,12.77 10.08,23.59 17.83,32.45 7.75,8.86 17.28,15.62 28.57,20.27 11.3,4.65 24.18,6.98 38.65,6.98 14.32,0 27.1,-2.33 38.32,-6.98 11.22,-4.65 20.71,-11.41 28.46,-20.27 7.75,-8.86 13.7,-19.68 17.83,-32.45 4.13,-12.77 6.2,-27.21 6.2,-43.3z" data-paper-data="{&quot;glyphName&quot;:&quot;O&quot;,&quot;glyphIndex&quot;:34,&quot;lastGlyphOfWord&quot;:true,&quot;word&quot;:6}"/>
    <polygon class="fil0" points="5535.19,3686.76 5535.19,3636 20067.56,3636.01 20067.56,3686.77 " data-paper-data="{&quot;isContainerTopLineAboveSecondaryText&quot;:true}"/>
   </g>
   <path class="fil1" d="M5897.18 1076.48c-66.22,304.56 -92.7,447.45 -92.7,642.97 0,270.73 30.9,612.9 88.29,1022.75 13.24,86.48 30.9,146.64 44.14,180.48 13.24,37.6 167.75,56.4 207.48,56.4 70.63,0 110.36,-56.4 97.12,-97.76 -70.63,-240.65 -110.36,-605.38 -110.36,-970.11 0,-364.73 39.73,-729.45 114.78,-958.83 83.87,-7.52 180.99,-22.56 278.11,-26.32 70.63,-3.75 105.95,-37.59 101.53,-82.72 -8.83,-41.36 -48.56,-63.93 -114.78,-63.93l-896.13 52.64c-44.14,3.76 -70.63,26.32 -79.46,67.68 0,45.12 30.9,75.21 83.87,75.21 145.68,-3.76 304.6,-11.28 304.6,-11.28l-26.49 112.82z" data-paper-data="{&quot;glyphName&quot;:&quot;T&quot;,&quot;glyphIndex&quot;:0,&quot;firstGlyphOfWord&quot;:true,&quot;word&quot;:1}"/>
   <path class="fil0" d="M7446.65 1298.33c0,-101.52 -83.87,-124.09 -158.92,-86.48 -339.91,169.2 -379.64,530.17 -406.13,928.74 -35.32,-191.77 -52.97,-360.97 -52.97,-507.61 0,-94 4.41,-176.72 17.66,-255.68 13.24,-45.12 -17.66,-82.73 -75.05,-94 -229.55,-11.28 -220.72,124.08 -220.72,342.17 0,391.05 70.63,898.66 229.55,1285.95 30.9,63.92 66.22,105.28 264.87,82.72 66.22,-7.52 83.87,-26.32 83.87,-90.24 0,-146.64 -57.39,-270.73 -57.39,-443.7 0,-255.68 30.9,-620.42 132.43,-876.1 61.8,-157.93 242.8,-240.65 242.8,-285.77z" data-paper-data="{&quot;glyphName&quot;:&quot;r&quot;,&quot;glyphIndex&quot;:1,&quot;word&quot;:1}"/>
   <path class="fil1" d="M9653.87 1753.29c-52.97,-7.52 -110.36,26.32 -128.02,75.21 -48.56,135.36 -180.99,864.81 -441.45,834.74 -251.62,-30.09 -203.06,-1067.87 -141.26,-1364.92 26.49,-124.09 -295.77,-116.56 -357.57,-18.8 -8.83,15.04 -17.66,37.6 -26.49,63.93 -172.16,-210.57 -516.49,-263.21 -719.56,-82.73 -176.58,161.69 -282.53,590.34 -282.53,909.95 0,372.25 295.77,609.13 542.98,304.57 145.68,-180.49 322.25,-537.7 432.62,-721.95 0,590.34 83.87,1049.07 529.73,1064.11 370.81,11.28 494.42,-142.88 675.41,-981.38 8.83,-41.37 -13.24,-71.44 -83.87,-82.73l0.01 0zm-1611.27 545.22c-79.46,109.04 -132.43,157.93 -158.92,154.16 -44.14,-11.28 -66.22,-75.2 -66.22,-199.29 0,-300.81 141.26,-778.33 282.53,-872.34 39.73,-33.84 83.87,-48.88 132.43,-48.88 92.7,0 180.99,75.2 220.72,206.81 -70.63,206.81 -256.04,545.22 -410.54,759.54z" data-paper-data="{&quot;glyphName&quot;:&quot;a&quot;,&quot;glyphIndex&quot;:2,&quot;word&quot;:1}"/>
   <path class="fil0" d="M11022.36 2430.12l-35.32 0c-225.14,0 -295.77,-203.05 -220.72,-1101.71 13.24,-139.12 -39.73,-282 -331.08,-270.72 -97.12,3.75 -203.06,41.36 -273.7,120.32 -198.65,259.45 -300.18,515.13 -357.57,872.34 -22.07,-210.57 -26.49,-391.05 -13.24,-548.98 35.32,-248.16 97.12,-349.68 -26.49,-372.25 -233.97,-22.56 -251.62,116.57 -278.11,353.46 -48.56,417.36 30.9,973.86 167.75,1402.51 26.49,67.68 119.19,116.56 251.62,109.04 70.63,-3.75 97.12,-45.11 101.53,-116.56 4.41,-37.6 0,-112.8 -30.9,-368.49 0,-18.8 0,-52.64 8.83,-105.28 22.07,-274.49 145.68,-736.98 269.28,-1003.95 66.22,-135.36 123.6,-191.77 167.75,-169.2 48.56,33.84 13.24,372.25 13.24,488.81 -4.41,703.14 141.26,943.79 587.12,883.63 83.86,-11.28 176.57,-56.41 176.57,-120.32 0,-63.93 -57.39,-101.53 -176.57,-52.64l0.01 -0.01z" data-paper-data="{&quot;glyphName&quot;:&quot;n&quot;,&quot;glyphIndex&quot;:3,&quot;word&quot;:1}"/>
   <path class="fil1" d="M12103.89 2445.15c-13.24,-26.32 -35.32,-41.36 -61.8,-41.36 -44.14,0 -128.02,33.84 -141.26,37.6 -251.62,-376.02 -450.27,-658.02 -485.59,-909.95 -26.49,-199.29 114.78,-330.89 207.48,-323.36 136.85,11.27 295.77,225.6 269.28,428.65 -8.83,71.44 -75.05,135.36 88.29,135.36 61.8,0 88.29,-86.48 92.7,-109.04 17.66,-116.57 -8.83,-218.09 -57.39,-315.85 -97.12,-199.29 -291.35,-278.24 -428.2,-289.52 -83.87,-7.52 -163.33,7.52 -229.55,45.12 -150.09,71.43 -260.45,240.65 -278.11,406.09 -17.65,176.72 70.63,357.2 158.92,485.04 44.14,63.93 128.02,176.73 260.45,345.93l150.09 191.77c-269.28,229.37 -331.08,233.13 -348.74,391.05 -13.24,105.28 97.12,206.81 238.38,214.32 414.96,22.56 573.88,-278.25 437.03,-548.97 26.49,-22.57 136.85,-60.16 136.85,-112.8l-8.83 -30.08zm-512.08 541.46c-61.8,-3.75 -88.29,-26.32 -88.29,-60.16 0,-52.64 79.46,-131.61 216.31,-233.13 8.83,33.84 13.24,71.44 8.83,112.8 -13.24,105.28 -66.22,188 -136.85,180.48l0 0.01z" data-paper-data="{&quot;glyphName&quot;:&quot;s&quot;,&quot;glyphIndex&quot;:4,&quot;word&quot;:1}"/>
   <path class="fil0" d="M12532.09 2031.54c0,-282 70.63,-545.22 216.31,-669.29 22.07,-18.8 52.97,-30.09 83.87,-30.09 88.29,0 180.99,90.25 194.24,206.81 0,48.88 39.73,86.48 92.7,86.48 66.22,0 97.12,-30.08 97.12,-75.2l0 -15.04c-22.07,-161.69 -110.36,-270.73 -264.87,-330.89 -198.65,-78.96 -498.83,52.64 -587.12,218.09 -105.95,191.76 -132.43,376.01 -132.43,567.77 0,372.25 128.02,962.58 547.39,962.58 48.56,0 92.7,-15.04 132.43,-45.12 119.19,-86.48 260.45,-387.29 273.7,-492.57 13.24,-41.36 -17.66,-78.95 -66.22,-94 -48.56,-7.52 -92.7,18.8 -123.6,78.96 -13.24,60.16 -44.14,131.61 -83.87,218.09 -88.29,172.96 -128.02,248.16 -211.89,94 -88.29,-150.4 -163.33,-454.97 -167.75,-680.58l-0.01 0z" data-paper-data="{&quot;glyphName&quot;:&quot;c&quot;,&quot;glyphIndex&quot;:5,&quot;word&quot;:1}"/>
   <path class="fil1" d="M14333.19 2008.99c-57.39,-3.76 -105.95,7.52 -114.78,63.92 -8.83,71.44 -92.7,334.65 -194.24,526.41 -101.53,191.77 -145.68,214.32 -211.89,-82.72 -30.9,-146.64 -48.56,-312.09 -48.56,-496.34 0,-60.16 0,-105.28 4.41,-135.36 339.91,-78.96 618.02,-297.05 618.02,-552.73 0,-52.64 -13.24,-101.52 -39.73,-150.41 -48.56,-75.2 -132.43,-116.56 -225.14,-116.56 -450.27,0 -573.88,345.93 -657.75,658.02 -57.39,-11.28 -189.82,-7.52 -189.82,60.16 0,112.8 92.7,75.2 163.33,90.24 -8.83,67.68 -13.24,139.12 -13.24,210.57 0,353.45 -17.66,800.9 498.83,800.9 57.39,0 110.36,-22.56 154.51,-67.68 92.7,-105.28 269.28,-515.13 322.25,-714.42 13.24,-41.37 -17.66,-82.73 -66.22,-94l0.02 0zm-167.75 -770.83c22.07,26.32 35.32,56.4 35.32,90.24 0,48.89 -17.66,97.77 -52.97,154.17 -75.05,112.8 -207.48,214.32 -344.33,240.65 30.9,-131.61 75.05,-248.17 132.43,-353.45 57.39,-105.28 110.36,-157.93 167.75,-157.93 22.07,0 39.73,7.52 61.8,26.32z" data-paper-data="{&quot;glyphName&quot;:&quot;e&quot;,&quot;glyphIndex&quot;:6,&quot;word&quot;:1}"/>
   <path class="fil0" d="M16085.72 2430.12l-35.31 0c-225.14,0 -295.77,-203.05 -220.72,-1101.71 13.24,-139.12 -39.73,-282 -331.08,-270.72 -97.12,3.75 -203.06,41.36 -273.7,120.32 -198.65,259.45 -300.18,515.13 -357.57,872.34 -22.07,-210.57 -26.49,-391.05 -13.24,-548.98 35.32,-248.16 97.12,-349.68 -26.49,-372.25 -233.97,-22.56 -251.62,116.57 -278.11,353.46 -48.56,417.36 30.9,973.86 167.75,1402.51 26.49,67.68 119.19,116.56 251.62,109.04 70.63,-3.75 97.12,-45.11 101.53,-116.56 4.41,-37.6 0,-112.8 -30.9,-368.49 0,-18.8 0,-52.64 8.83,-105.28 22.07,-274.49 145.68,-736.98 269.28,-1003.95 66.22,-135.36 123.6,-191.77 167.75,-169.2 48.56,33.84 13.24,372.25 13.24,488.81 -4.41,703.14 141.26,943.79 587.12,883.63 83.87,-11.28 176.58,-56.41 176.58,-120.32 0,-63.93 -57.39,-101.53 -176.58,-52.64l0 -0.01z" data-paper-data="{&quot;glyphName&quot;:&quot;n&quot;,&quot;glyphIndex&quot;:7,&quot;word&quot;:1}"/>
   <path class="fil1" d="M17833.85 602.71c4.41,-18.8 8.83,-37.6 8.83,-48.89 0,-37.59 -22.07,-63.92 -185.41,-75.2 -70.63,-11.28 -105.95,18.8 -128.02,90.25 -92.7,244.4 -185.41,552.73 -278.11,928.74 -498.83,-172.96 -953.52,101.52 -953.52,815.94 0,530.18 295.77,684.34 551.81,684.34 70.63,0 128.02,-26.32 172.16,-82.72 101.53,-116.57 185.41,-421.14 278.11,-785.86l39.73 -142.89c0,221.85 30.9,631.7 66.22,906.18 13.24,82.73 26.49,142.89 39.73,180.48 13.24,37.6 154.51,56.41 194.24,56.41 8.83,0 22.07,-3.76 39.73,-7.52 39.73,-11.28 57.39,-26.32 57.39,-52.64 0,-11.28 -4.41,-26.32 -8.83,-48.89l-13.24 -52.63c-52.97,-278.25 -61.8,-582.82 -61.8,-940.03 0,-109.04 0,-195.52 4.41,-251.92 13.24,-383.53 66.22,-785.86 176.58,-1173.15l-0.01 0zm-980.01 2241.02c-123.6,-63.93 -180.99,-229.37 -180.99,-436.18 0,-124.08 22.07,-248.16 61.8,-376.01 83.87,-270.73 260.45,-537.7 490,-409.85 -66.22,379.77 -132.43,684.33 -198.65,913.7 -66.22,229.36 -123.6,334.65 -172.16,308.33l0 0.01z" data-paper-data="{&quot;glyphName&quot;:&quot;d&quot;,&quot;glyphIndex&quot;:8,&quot;word&quot;:1}"/>
   <path class="fil0" d="M18946.29 2008.99c-57.39,-3.76 -105.95,7.52 -114.78,63.92 -8.83,71.44 -92.7,334.65 -194.24,526.41 -101.53,191.77 -145.68,214.32 -211.89,-82.72 -30.9,-146.64 -48.56,-312.09 -48.56,-496.34 0,-60.16 0,-105.28 4.41,-135.36 339.91,-78.96 618.02,-297.05 618.02,-552.73 0,-52.64 -13.24,-101.52 -39.73,-150.41 -48.56,-75.2 -132.43,-116.56 -225.14,-116.56 -450.27,0 -573.88,345.93 -657.75,658.02 -57.39,-11.28 -189.82,-7.52 -189.82,60.16 0,112.8 92.7,75.2 163.33,90.24 -8.83,67.68 -13.24,139.12 -13.24,210.57 0,353.45 -17.66,800.9 498.83,800.9 57.39,0 110.36,-22.56 154.51,-67.68 92.7,-105.28 269.28,-515.13 322.25,-714.42 13.24,-41.37 -17.66,-82.73 -66.22,-94l0.02 0zm-167.75 -770.83c22.07,26.32 35.32,56.4 35.32,90.24 0,48.89 -17.66,97.77 -52.97,154.17 -75.05,112.8 -207.48,214.32 -344.33,240.65 30.9,-131.61 75.05,-248.17 132.43,-353.45 57.39,-105.28 110.36,-157.93 167.75,-157.93 22.07,0 39.73,7.52 61.8,26.32z" data-paper-data="{&quot;glyphName&quot;:&quot;e&quot;,&quot;glyphIndex&quot;:9,&quot;word&quot;:1}"/>
   <path class="fil1" d="M20067.56 1298.33c0,-101.52 -83.87,-124.09 -158.92,-86.48 -339.91,169.2 -379.64,530.17 -406.13,928.74 -35.32,-191.77 -52.97,-360.97 -52.97,-507.61 0,-94 4.41,-176.72 17.66,-255.68 13.24,-45.12 -17.66,-82.73 -75.05,-94 -229.55,-11.28 -220.72,124.08 -220.72,342.17 0,391.05 70.63,898.66 229.55,1285.95 30.9,63.92 66.22,105.28 264.87,82.72 66.22,-7.52 83.87,-26.32 83.87,-90.24 0,-146.64 -57.39,-270.73 -57.39,-443.7 0,-255.68 30.9,-620.42 132.43,-876.1 61.8,-157.93 242.8,-240.65 242.8,-285.77z" data-paper-data="{&quot;glyphName&quot;:&quot;r&quot;,&quot;glyphIndex&quot;:10,&quot;lastGlyphOfWord&quot;:true,&quot;word&quot;:1}"/>
   <path class="fil2" d="M932.64 2516.6c169.34,171.09 389.94,281.49 627.72,314.74 114.54,406.86 451.28,714.46 869.15,790.4l0 483.47 -163.35 0c-112.07,0 -202.94,90.86 -202.94,202.95 0,112.08 90.86,202.9 202.94,202.9l163.36 0 0 163.35c0,112.08 90.86,202.94 202.94,202.94 112.08,0 202.91,-90.85 202.91,-202.94l0 -163.35 163.35 0c112.07,0 202.94,-90.82 202.94,-202.9 0,-112.08 -90.86,-202.95 -202.94,-202.95l-163.35 0 0 -483.47c417.88,-76.01 754.57,-383.68 869.05,-790.58 374.25,-54.11 696.48,-294.81 853.96,-640.35 162.29,-356.09 125.8,-771.26 -96.14,-1093.56l92.93 -93.04 124.08 124.5c80.72,75.44 206.14,75.44 286.87,0 53.07,-52.71 72.74,-130.41 51.13,-202.03 60.17,13.41 123.16,-1.2 171.3,-39.66 48.18,-38.5 76.3,-96.73 76.47,-158.39l0 -518.49c-0.17,-22.87 -3.94,-45.57 -11.15,-67.25l-1.02 -2.95 -0.92 -2.54 -11.9 -33.78 -4.53 0c-22.59,-36.18 -55.81,-64.54 -95.08,-81.19l-12.78 -4.16c-20.9,-7.46 -42.96,-11.22 -65.13,-11.15l-518.49 0.01c-112.08,0 -202.95,90.85 -202.95,202.9 0.11,15.42 1.98,30.72 5.6,45.68 -88.85,-26.6 -184.43,10.42 -232.18,89.95 -47.75,79.53 -35.47,181.3 29.77,247.21l124.08 124.49 -93.04 93.64c-253.05,-174.36 -566.91,-236.4 -867.29,-171.41 -274.27,59.33 -515.01,219.73 -675.33,447.69 -36.85,-52.37 -78.19,-101.42 -123.59,-146.71 -381.07,-377.45 -976.13,-432.03 -1419.49,-130.17l-397.41 -397.43 28.68 0c112.08,0 202.94,-90.85 202.94,-202.94 0,-112.05 -90.85,-202.9 -202.94,-202.9l-518.45 0c-22.21,-0.11 -44.24,3.62 -65.14,11.05l-12.81 4.16c-39.27,16.64 -72.46,45.01 -95.05,81.18l-16.86 33.78 -1.12 3.07 -0.81 2.42c-7.22,21.68 -10.98,44.42 -11.16,67.25l0 518.49c0,112.08 90.86,202.94 202.95,202.94 112.07,0 202.9,-90.85 202.9,-202.94l0 -28.71 397.33 397.43c-306.12,442.16 -251.36,1040.15 129.99,1419.36l0 -0.01zm1598.48 -804.17c-0.11,5.18 -0.14,10.35 -0.14,15.52 0,17.35 0,34.7 0.91,52.05l0.04 0.11 0.45 8.33c7.15,120.84 35.86,239.12 84.43,349.3 8.83,20.06 18.33,39.83 28.46,59.29 9.57,18.44 19.78,36.6 30.51,54.44l0 0.04 4.48 7.35c41.41,67.46 90.79,129.71 147.12,185.41 133.97,134.54 303.06,228.74 487.98,271.81 12.88,-44.34 21.08,-89.87 24.49,-135.86 1.3,-17.49 1.91,-35.09 1.83,-52.65l0 -0.92c0,-4.39 -0.07,-8.76 -0.21,-13.16 -139.88,-36.71 -267.55,-109.72 -370.13,-211.71 -129.08,-128.86 -210.47,-297.32 -231.58,-477.74l-1.58 -0.35 -2.12 -38.96c-1.12,-19.18 -2.14,-38.46 -2.14,-57.6 0.07,-89.92 15.45,-179.12 45.57,-263.82l14.61 -40.57 1.16 0.21c40.29,-98.88 99.69,-189.95 175.87,-267.59 241.55,-241.54 608.61,-305.73 917.8,-160.5 309.17,145.24 494.13,468.74 462.46,808.85 -31.67,340.11 -273.18,623.91 -603.86,709.53l0 15.91c-0.04,65.66 -6.02,131.19 -17.84,195.76 201.46,-36.42 386.8,-134.04 530.84,-279.55 357.49,-355.39 397.93,-920.08 94.65,-1322.76l-26.18 -35.12 226.17 -226.27 196.22 196.25c40.29,37.83 103.04,37.83 143.3,0 19.49,-19.11 30.43,-45.26 30.43,-72.56 0.04,-26.74 -10.69,-52.36 -29.84,-71.01l-196.75 -196.53 262.49 -262.49 0 273.96c0,56.02 45.43,101.45 101.49,101.45 56.02,0 101.45,-45.43 101.45,-101.45l0 -523.87 -10.13 0 -0.82 -41.38c-10.34,-19.67 -26.71,-35.47 -46.69,-45.15l-7.4 -2.53c-11.54,-4.86 -23.93,-7.36 -36.42,-7.32l-518.48 0c-56.02,0 -101.46,45.43 -101.46,101.45 0,56.06 45.44,101.49 101.46,101.49l273.95 0 -262.58 262.58 -195.21 -196.42c-40.25,-39.1 -104.27,-39.1 -144.48,0 -39.03,39.69 -39.03,103.35 0,143.04l196.11 196.64 -226.27 226.17 -35.19 -26.18c-403.87,-299.15 -965.58,-258.96 -1322.79,94.56 -58.28,58.24 -109.2,123.45 -151.57,194.11 -52.01,85.83 -90.61,179.05 -114.58,276.48 -18.97,75.24 -29.13,152.37 -30.29,229.93zm-1014.67 799.52l-0.08 1.3 42.31 9.05c53.17,10.98 107.32,16.46 161.62,16.32 55.5,0.04 110.85,-5.38 165.29,-16.22l37.94 -7.6 0.14 -1.76c138.15,-35.61 266.56,-107.79 370.31,-212.05 76.43,-76.33 136.74,-167.23 177.49,-267.27 23.97,84.63 57.96,166.34 101.35,243.4 -38.96,60.5 -84.35,116.59 -135.48,167.26 -144.67,144.88 -329.8,242.57 -531.05,280.22 -98.7,17.91 -199.52,21.33 -299.22,10.17l-45.36 -5.8c-211.03,-32.41 -406.55,-131.79 -557.34,-284.09 -357.49,-355.39 -397.89,-920.11 -94.65,-1322.8l26.18 -35.08 -632.02 -632.11 0 273.25c0,36.25 -19.31,69.74 -50.7,87.86 -31.43,18.13 -70.1,18.13 -101.49,0 -31.39,-18.12 -50.71,-51.62 -50.71,-87.86l0 -525.18 10.93 0 0 -39.8c9.88,-18.58 25.23,-33.75 43.91,-43.43l10.17 -3.83c11.51,-4.86 23.9,-7.36 36.43,-7.32l518.76 0c56.06,0 101.46,45.43 101.46,101.45 0,56.06 -45.4,101.49 -101.46,101.49l-273.95 0 632.12 632.01 35.22 -26.18c224.9,-168.41 509.73,-235.77 786.25,-185.94 276.56,49.79 519.93,212.3 671.95,448.63 -43.64,77 -77.7,159.06 -101.46,244.33 -39.97,-101.1 -100.33,-192.87 -177.35,-269.59 -245.14,-244.92 -618.89,-306.86 -929.94,-154.1 -311,152.76 -490.47,486.43 -446.49,830.13 42.12,329.31 280.43,598.05 598.9,681.14l0.02 0zm3021.16 -2098.98l17.35 17.56 17.77 -17.56 -35.12 0zm322.06 286.83l-17.67 17.56 17.67 17.67 0 -35.23zm-3336.47 1709.4c-269.48,-77.91 -469.89,-308.86 -506.13,-590.7 -38.74,-301.05 118.41,-593.34 390.89,-727.06 272.48,-133.72 599.85,-79.22 814.3,135.58 62.08,63.49 111.41,137.17 146.36,217.06 -457.68,109.58 -797.05,496.98 -845.41,965.12l-0.01 0zm2218.7 -0.08c-48.11,-468.48 -387.55,-856.2 -845.44,-965.85 34.76,-79.43 83.78,-152.73 145.4,-215.96 214.49,-214.21 541.43,-268.33 813.52,-134.64 272.06,133.69 429.01,425.59 390.47,726.29 -36.03,281.09 -235.45,511.69 -503.95,590.16zm-1312.66 -666.88c0.11,-4.78 0.17,-9.54 0.17,-14.29l0.11 0 0 -0.17c-0.67,-63.88 -9.75,-126.83 -26.6,-187.36 -424.89,97.06 -739.45,455.99 -779.92,889.96 50.29,6.93 101.14,8.59 151.67,4.93 18.05,-1.3 36.07,-3.32 53.98,-5.95 40.29,-330.57 278.42,-602.98 600.58,-687.12l0.01 0zm-708.94 1100.78c-16.96,0.07 -33.89,-0.29 -50.78,-1.1 119.08,366.23 436.43,632.58 817.75,686.38l43.52 6.37 0 671.99 -264.62 0c-56.02,0 -101.45,45.43 -101.45,101.49 0,56.02 45.43,101.46 101.45,101.46l264.81 0 0 264.8c0,56.06 45.43,101.49 101.48,101.49 56.03,0 101.46,-45.43 101.46,-101.49l0 -264.8 264.8 0c56.05,0 101.48,-45.44 101.48,-101.46 0,-56.06 -45.43,-101.49 -101.48,-101.49l-264.81 0 0 -671.88 43.53 -6.37c393.92,-55.63 716.99,-337.26 827.28,-716.93l10.1 -38.78c20.49,-80.02 30.69,-162.33 30.44,-244.92 0,-17.28 0,-34.63 -0.92,-51.98l-2.18 -37.26c-36.99,-435.69 -351.41,-799.87 -780.3,-898.01 -16.83,60.56 -25.87,123.51 -26.5,187.41 0,4.68 0.07,9.4 0.21,14.15 334.17,87.38 576.17,376.61 603.73,720.42l0.49 4.57c2.25,20.24 3.38,40.54 3.35,60.88 0.53,90.4 -14.96,180.17 -45.75,265.12l-14.81 40.61 -0.81 -0.17c-120.84,296.22 -406.13,495.01 -728.68,503.36 -337.12,8.69 -644.3,-192.53 -771.05,-505.01 -53.55,7.46 -107.61,11.19 -161.73,11.15l-0.01 0zm1125.45 -993.24c251.99,80.06 439.03,294.33 484.36,554.74 -107.97,-34.59 -206.57,-94.34 -287.44,-174.75 -103.8,-103.6 -172.29,-236.55 -196.92,-379.98l0 -0.01zm-623.4 379.39c-80.86,80.62 -179.5,140.58 -287.54,175.31 44.91,-260.37 231.87,-474.79 484.18,-554.42 -24.67,143.08 -93.08,275.68 -196.64,379.11l0 0zm410.11 1005.8c-282.4,0 -535.74,-167.54 -647.99,-422.71 198.12,-48.31 379.63,-150.19 524.29,-295.03 45.36,-45.04 86.68,-93.89 123.45,-146.04 36.81,52.23 78.15,101.18 123.62,146.22 144.7,144.95 326.21,246.93 524.4,295.31 -112.36,254.92 -365.55,422.25 -647.78,422.25l0.01 0z"/>
  </g>
 </g>
</svg>
