
<svg xmlns:mydata="http://www.w3.org/2000/svg" mydata:contrastcolor="ffffff" mydata:template="Contrast" mydata:presentation="2.5" mydata:layouttype="undefined" mydata:specialfontid="undefined" mydata:id1="1026" mydata:id2="206" mydata:companyname="Transcender" mydata:companytagline="Juntos na diversidade, unidos no orgulho" version="1.1" xmlns="http://www.w3.org/2000/svg" xmlns:xlink="http://www.w3.org/1999/xlink" viewBox="0 35 550 400"><g fill="none" fill-rule="none" stroke="none" stroke-width="1" stroke-linecap="butt" stroke-linejoin="miter" stroke-miterlimit="10" stroke-dasharray="" stroke-dashoffset="0" font-family="none" font-weight="none" font-size="none" text-anchor="none" style="mix-blend-mode: normal"><g data-paper-data="{&quot;isGlobalGroup&quot;:true,&quot;bounds&quot;:{&quot;x&quot;:130.3738077221547,&quot;y&quot;:114.99999999999999,&quot;width&quot;:289.2523845556906,&quot;height&quot;:240}}"><g data-paper-data="{&quot;textHeightFactor&quot;:0.4426301392220089,&quot;isSecondaryText&quot;:true}" fill="#e56db1" fill-rule="nonzero"><path d="M149.58568,348.28461h-1.3095v3.39799c0,0.75212 -0.47008,0.95358 -0.9603,0.95358c-0.40292,0 -0.86628,-0.27533 -1.09461,-0.65811l-0.873,0.873c0.49694,0.61782 1.10804,0.94015 1.96089,0.94015c1.17519,0 2.27652,-0.55738 2.27652,-2.14221z" data-paper-data="{&quot;glyphName&quot;:&quot;J&quot;,&quot;glyphIndex&quot;:0,&quot;firstGlyphOfWord&quot;:true,&quot;word&quot;:1}"></path><path d="M157.41134,348.28461h-1.3095v2.92119c0,0.96702 -0.36263,1.43038 -1.32965,1.43038c-0.98716,0 -1.33636,-0.46336 -1.33636,-1.43038v-2.92119h-1.3095v2.92791c0,1.63184 0.85957,2.57871 2.64586,2.57871c1.78629,0 2.63915,-0.9603 2.63915,-2.57871z" data-paper-data="{&quot;glyphName&quot;:&quot;U&quot;,&quot;glyphIndex&quot;:1,&quot;word&quot;:1}"></path><path d="M165.12284,348.28461h-1.3095v3.33083h-0.01343l-0.42307,-0.63125l-2.31009,-2.69959h-1.08118v5.43946h1.3095v-3.36441h0.01343l0.46336,0.68497l2.2698,2.67944h1.08118z" data-paper-data="{&quot;glyphName&quot;:&quot;N&quot;,&quot;glyphIndex&quot;:2,&quot;word&quot;:1}"></path><path d="M172.33069,348.28461h-5.07012v1.14833h1.94746l-0.06715,0.12088v4.17025h1.3095v-4.17025l-0.06715,-0.12088h1.94746z" data-paper-data="{&quot;glyphName&quot;:&quot;T&quot;,&quot;glyphIndex&quot;:3,&quot;word&quot;:1}"></path><path d="M178.67226,351.03121c0,0.9603 -0.44322,1.60498 -1.55125,1.60498c-1.10132,0 -1.55797,-0.64468 -1.55797,-1.60498c0,-0.98045 0.45665,-1.6587 1.55797,-1.6587c1.10132,0 1.55125,0.6984 1.55125,1.6587zM180.0019,351.03121c0,-1.60498 -0.98716,-2.81375 -2.88762,-2.81375c-1.88702,0 -2.8809,1.21548 -2.8809,2.81375c0,1.61841 0.99388,2.76002 2.8809,2.76002c1.86016,0 2.88762,-1.14162 2.88762,-2.76002z" data-paper-data="{&quot;glyphName&quot;:&quot;O&quot;,&quot;glyphIndex&quot;:4,&quot;word&quot;:1}"></path><path d="M187.24333,352.16611c0,-0.75212 -0.6111,-1.37665 -1.76615,-1.64527c-0.12759,-0.02686 -0.75212,-0.18132 -0.873,-0.21489c-0.81256,-0.20146 -1.06775,-0.29548 -1.06775,-0.50365c0,-0.23504 0.34248,-0.44993 1.11475,-0.44322c0.59767,0 1.26249,0.32234 1.58483,0.6984l0.90658,-0.89315c-0.57752,-0.59095 -1.43038,-0.94687 -2.47126,-0.94687c-1.5714,0 -2.46455,0.70512 -2.46455,1.61841c0,0.9603 0.93344,1.32293 1.90045,1.55797c0.12088,0.03358 0.88643,0.21489 1.00731,0.24175c0.6984,0.16788 0.79913,0.42307 0.79913,0.53052c0,0.27533 -0.26862,0.47679 -1.06103,0.47679c-0.62453,0 -1.41023,-0.27533 -1.85345,-0.70512l-0.89315,0.89986c0.67154,0.61782 1.60498,0.95358 2.63243,0.95358c1.71242,0 2.50484,-0.76555 2.50484,-1.62512z" data-paper-data="{&quot;glyphName&quot;:&quot;S&quot;,&quot;glyphIndex&quot;:5,&quot;lastGlyphOfWord&quot;:true,&quot;word&quot;:1}"></path><path d="M198.2006,348.28461h-1.3095v3.33083h-0.01343l-0.42307,-0.63125l-2.31009,-2.69959h-1.08118v5.43946h1.3095v-3.36441h0.01343l0.46336,0.68497l2.2698,2.67944h1.08118z" data-paper-data="{&quot;glyphName&quot;:&quot;N&quot;,&quot;glyphIndex&quot;:6,&quot;firstGlyphOfWord&quot;:true,&quot;word&quot;:2}"></path><path d="M202.80959,351.40727l0.14102,-0.12088l0.40964,-0.84614l0.20146,-0.55066l0.20146,0.55066l0.41635,0.84614l0.13431,0.12088zM204.11909,348.28461h-1.10804l-2.7063,5.43946h1.44381l0.57081,-1.17519l-0.08058,-0.12088h2.63915l-0.08058,0.12088l0.58424,1.17519h1.43038z" data-paper-data="{&quot;glyphName&quot;:&quot;A&quot;,&quot;glyphIndex&quot;:7,&quot;lastGlyphOfWord&quot;:true,&quot;word&quot;:2}"></path><path d="M216.29185,351.00435c0,0.93344 -0.20146,1.5714 -1.53782,1.5714h-1.16176l0.11416,-0.12088v-2.90105l-0.11416,-0.12088h1.12818c1.36322,0 1.5714,0.65139 1.5714,1.5714zM217.6215,351.00435c0,-1.21548 -0.42307,-2.71973 -2.83389,-2.71973h-2.39068v5.43946h2.42425c2.38396,0 2.80032,-1.50425 2.80032,-2.71973z" data-paper-data="{&quot;glyphName&quot;:&quot;D&quot;,&quot;glyphIndex&quot;:8,&quot;firstGlyphOfWord&quot;:true,&quot;word&quot;:3}"></path><path d="M221.33734,348.28461h-1.3095v5.43946h1.3095z" data-paper-data="{&quot;glyphName&quot;:&quot;I&quot;,&quot;glyphIndex&quot;:9,&quot;word&quot;:3}"></path><path d="M228.23628,348.28461l-1.47067,3.25696l-0.1746,0.54395h-0.01343l-0.18803,-0.54395l-1.46395,-3.25696h-1.45052l2.53842,5.43946h1.12147l2.53842,-5.43946z" data-paper-data="{&quot;glyphName&quot;:&quot;V&quot;,&quot;glyphIndex&quot;:10,&quot;word&quot;:3}"></path><path d="M236.44472,352.57575h-3.47857l0.12088,-0.12088v-0.75212l-0.12088,-0.12088h3.15623v-1.15505h-3.15623l0.12088,-0.12088v-0.75212l-0.12088,-0.12088h3.47857v-1.14833h-4.66719v5.43946h4.66719z" data-paper-data="{&quot;glyphName&quot;:&quot;E&quot;,&quot;glyphIndex&quot;:11,&quot;word&quot;:3}"></path><path d="M242.47066,350.06419c0,0.28205 -0.23504,0.61782 -0.90658,0.61782h-1.45724l0.12088,-0.12088v-1.00731l-0.12088,-0.12088h1.53111c0.57752,0 0.83271,0.2619 0.83271,0.63125zM243.44439,351.87735c-0.15445,-0.28876 -0.35592,-0.47008 -0.53723,-0.55738v-0.01343c0.47008,-0.21489 0.89315,-0.75884 0.89315,-1.28935c0,-1.19534 -1.06103,-1.73257 -2.16235,-1.73257h-2.71973v5.43946h1.3095v-1.87359l-0.11416,-0.11416h1.00059c0.6111,0 0.88643,0.1746 1.08789,0.54395l0.77227,1.44381h1.46395z" data-paper-data="{&quot;glyphName&quot;:&quot;R&quot;,&quot;glyphIndex&quot;:12,&quot;word&quot;:3}"></path><path d="M251.34393,352.16611c0,-0.75212 -0.6111,-1.37665 -1.76615,-1.64527c-0.12759,-0.02686 -0.75212,-0.18132 -0.873,-0.21489c-0.81256,-0.20146 -1.06775,-0.29548 -1.06775,-0.50365c0,-0.23504 0.34248,-0.44993 1.11475,-0.44322c0.59767,0 1.26249,0.32234 1.58483,0.6984l0.90658,-0.89315c-0.57752,-0.59095 -1.43038,-0.94687 -2.47126,-0.94687c-1.5714,0 -2.46455,0.70512 -2.46455,1.61841c0,0.9603 0.93344,1.32293 1.90045,1.55797c0.12088,0.03358 0.88643,0.21489 1.00731,0.24175c0.6984,0.16788 0.79913,0.42307 0.79913,0.53052c0,0.27533 -0.26862,0.47679 -1.06103,0.47679c-0.62453,0 -1.41023,-0.27533 -1.85345,-0.70512l-0.89315,0.89986c0.67154,0.61782 1.60498,0.95358 2.63243,0.95358c1.71242,0 2.50484,-0.76555 2.50484,-1.62512z" data-paper-data="{&quot;glyphName&quot;:&quot;S&quot;,&quot;glyphIndex&quot;:13,&quot;word&quot;:3}"></path><path d="M255.0262,348.28461h-1.3095v5.43946h1.3095z" data-paper-data="{&quot;glyphName&quot;:&quot;I&quot;,&quot;glyphIndex&quot;:14,&quot;word&quot;:3}"></path><path d="M261.56251,351.00435c0,0.93344 -0.20146,1.5714 -1.53782,1.5714h-1.16176l0.11416,-0.12088v-2.90105l-0.11416,-0.12088h1.12818c1.36322,0 1.5714,0.65139 1.5714,1.5714zM262.89215,351.00435c0,-1.21548 -0.42307,-2.71973 -2.83389,-2.71973h-2.39068v5.43946h2.42425c2.38396,0 2.80032,-1.50425 2.80032,-2.71973z" data-paper-data="{&quot;glyphName&quot;:&quot;D&quot;,&quot;glyphIndex&quot;:15,&quot;word&quot;:3}"></path><path d="M267.06465,351.40727l0.14102,-0.12088l0.40964,-0.84614l0.20146,-0.55066l0.20146,0.55066l0.41635,0.84614l0.13431,0.12088zM268.37415,348.28461h-1.10804l-2.7063,5.43946h1.44381l0.57081,-1.17519l-0.08058,-0.12088h2.63915l-0.08058,0.12088l0.58424,1.17519h1.43038z" data-paper-data="{&quot;glyphName&quot;:&quot;A&quot;,&quot;glyphIndex&quot;:16,&quot;word&quot;:3}"></path><path d="M277.0661,351.00435c0,0.93344 -0.20146,1.5714 -1.53782,1.5714h-1.16176l0.11416,-0.12088v-2.90105l-0.11416,-0.12088h1.12818c1.36322,0 1.5714,0.65139 1.5714,1.5714zM278.39574,351.00435c0,-1.21548 -0.42307,-2.71973 -2.83389,-2.71973h-2.39068v5.43946h2.42425c2.38396,0 2.80032,-1.50425 2.80032,-2.71973z" data-paper-data="{&quot;glyphName&quot;:&quot;D&quot;,&quot;glyphIndex&quot;:17,&quot;word&quot;:3}"></path><path d="M285.43571,352.57575h-3.47857l0.12088,-0.12088v-0.75212l-0.12088,-0.12088h3.15623v-1.15505h-3.15623l0.12088,-0.12088v-0.75212l-0.12088,-0.12088h3.47857v-1.14833h-4.66719v5.43946h4.66719z" data-paper-data="{&quot;glyphName&quot;:&quot;E&quot;,&quot;glyphIndex&quot;:18,&quot;word&quot;:3}"></path><path d="M289.03739,353.07268c0,-0.40964 -0.22832,-0.71183 -0.66482,-0.71183c-0.4365,0 -0.66482,0.30219 -0.66482,0.71183c0,0.41635 0.1746,0.67154 0.53052,0.70512l-0.18803,0.12088l-0.34248,0.83271l0.6111,0.26862l0.60438,-1.46395c0.05372,-0.12759 0.11416,-0.30891 0.11416,-0.46336z" data-paper-data="{&quot;glyphName&quot;:&quot;,&quot;,&quot;glyphIndex&quot;:19,&quot;lastGlyphOfWord&quot;:true,&quot;word&quot;:3}"></path><path d="M300.24313,348.28461h-1.3095v2.92119c0,0.96702 -0.36263,1.43038 -1.32965,1.43038c-0.98716,0 -1.33636,-0.46336 -1.33636,-1.43038v-2.92119h-1.3095v2.92791c0,1.63184 0.85957,2.57871 2.64586,2.57871c1.78629,0 2.63915,-0.9603 2.63915,-2.57871z" data-paper-data="{&quot;glyphName&quot;:&quot;U&quot;,&quot;glyphIndex&quot;:20,&quot;firstGlyphOfWord&quot;:true,&quot;word&quot;:4}"></path><path d="M307.95463,348.28461h-1.3095v3.33083h-0.01343l-0.42307,-0.63125l-2.31009,-2.69959h-1.08118v5.43946h1.3095v-3.36441h0.01343l0.46336,0.68497l2.2698,2.67944h1.08118z" data-paper-data="{&quot;glyphName&quot;:&quot;N&quot;,&quot;glyphIndex&quot;:21,&quot;word&quot;:4}"></path><path d="M311.90552,348.28461h-1.3095v5.43946h1.3095z" data-paper-data="{&quot;glyphName&quot;:&quot;I&quot;,&quot;glyphIndex&quot;:22,&quot;word&quot;:4}"></path><path d="M318.44183,351.00435c0,0.93344 -0.20146,1.5714 -1.53782,1.5714h-1.16176l0.11416,-0.12088v-2.90105l-0.11416,-0.12088h1.12818c1.36322,0 1.5714,0.65139 1.5714,1.5714zM319.77148,351.00435c0,-1.21548 -0.42307,-2.71973 -2.83389,-2.71973h-2.39068v5.43946h2.42425c2.38396,0 2.80032,-1.50425 2.80032,-2.71973z" data-paper-data="{&quot;glyphName&quot;:&quot;D&quot;,&quot;glyphIndex&quot;:23,&quot;word&quot;:4}"></path><path d="M326.34808,351.03121c0,0.9603 -0.44322,1.60498 -1.55125,1.60498c-1.10132,0 -1.55797,-0.64468 -1.55797,-1.60498c0,-0.98045 0.45665,-1.6587 1.55797,-1.6587c1.10132,0 1.55125,0.6984 1.55125,1.6587zM327.67772,351.03121c0,-1.60498 -0.98716,-2.81375 -2.88762,-2.81375c-1.88702,0 -2.8809,1.21548 -2.8809,2.81375c0,1.61841 0.99388,2.76002 2.8809,2.76002c1.86016,0 2.88762,-1.14162 2.88762,-2.76002z" data-paper-data="{&quot;glyphName&quot;:&quot;O&quot;,&quot;glyphIndex&quot;:24,&quot;word&quot;:4}"></path><path d="M334.91915,352.16611c0,-0.75212 -0.6111,-1.37665 -1.76615,-1.64527c-0.12759,-0.02686 -0.75212,-0.18132 -0.873,-0.21489c-0.81256,-0.20146 -1.06775,-0.29548 -1.06775,-0.50365c0,-0.23504 0.34248,-0.44993 1.11475,-0.44322c0.59767,0 1.26249,0.32234 1.58483,0.6984l0.90658,-0.89315c-0.57752,-0.59095 -1.43038,-0.94687 -2.47126,-0.94687c-1.5714,0 -2.46455,0.70512 -2.46455,1.61841c0,0.9603 0.93344,1.32293 1.90045,1.55797c0.12088,0.03358 0.88643,0.21489 1.00731,0.24175c0.6984,0.16788 0.79913,0.42307 0.79913,0.53052c0,0.27533 -0.26862,0.47679 -1.06103,0.47679c-0.62453,0 -1.41023,-0.27533 -1.85345,-0.70512l-0.89315,0.89986c0.67154,0.61782 1.60498,0.95358 2.63243,0.95358c1.71242,0 2.50484,-0.76555 2.50484,-1.62512z" data-paper-data="{&quot;glyphName&quot;:&quot;S&quot;,&quot;glyphIndex&quot;:25,&quot;lastGlyphOfWord&quot;:true,&quot;word&quot;:4}"></path><path d="M345.87642,348.28461h-1.3095v3.33083h-0.01343l-0.42307,-0.63125l-2.31009,-2.69959h-1.08118v5.43946h1.3095v-3.36441h0.01343l0.46336,0.68497l2.2698,2.67944h1.08118z" data-paper-data="{&quot;glyphName&quot;:&quot;N&quot;,&quot;glyphIndex&quot;:26,&quot;firstGlyphOfWord&quot;:true,&quot;word&quot;:5}"></path><path d="M352.68806,351.03121c0,0.9603 -0.44322,1.60498 -1.55125,1.60498c-1.10132,0 -1.55797,-0.64468 -1.55797,-1.60498c0,-0.98045 0.45665,-1.6587 1.55797,-1.6587c1.10132,0 1.55125,0.6984 1.55125,1.6587zM354.01771,351.03121c0,-1.60498 -0.98716,-2.81375 -2.88762,-2.81375c-1.88702,0 -2.8809,1.21548 -2.8809,2.81375c0,1.61841 0.99388,2.76002 2.8809,2.76002c1.86016,0 2.88762,-1.14162 2.88762,-2.76002z" data-paper-data="{&quot;glyphName&quot;:&quot;O&quot;,&quot;glyphIndex&quot;:27,&quot;lastGlyphOfWord&quot;:true,&quot;word&quot;:5}"></path><path d="M364.07512,351.03121c0,0.9603 -0.44322,1.60498 -1.55125,1.60498c-1.10132,0 -1.55797,-0.64468 -1.55797,-1.60498c0,-0.98045 0.45665,-1.6587 1.55797,-1.6587c1.10132,0 1.55125,0.6984 1.55125,1.6587zM365.40476,351.03121c0,-1.60498 -0.98716,-2.81375 -2.88762,-2.81375c-1.88702,0 -2.8809,1.21548 -2.8809,2.81375c0,1.61841 0.99388,2.76002 2.8809,2.76002c1.86016,0 2.88762,-1.14162 2.88762,-2.76002z" data-paper-data="{&quot;glyphName&quot;:&quot;O&quot;,&quot;glyphIndex&quot;:28,&quot;firstGlyphOfWord&quot;:true,&quot;word&quot;:6}"></path><path d="M371.32997,350.06419c0,0.28205 -0.23504,0.61782 -0.90658,0.61782h-1.45724l0.12088,-0.12088v-1.00731l-0.12088,-0.12088h1.53111c0.57752,0 0.83271,0.2619 0.83271,0.63125zM372.3037,351.87735c-0.15445,-0.28876 -0.35592,-0.47008 -0.53723,-0.55738v-0.01343c0.47008,-0.21489 0.89315,-0.75884 0.89315,-1.28935c0,-1.19534 -1.06103,-1.73257 -2.16235,-1.73257h-2.71973v5.43946h1.3095v-1.87359l-0.11416,-0.11416h1.00059c0.6111,0 0.88643,0.1746 1.08789,0.54395l0.77227,1.44381h1.46395z" data-paper-data="{&quot;glyphName&quot;:&quot;R&quot;,&quot;glyphIndex&quot;:29,&quot;word&quot;:6}"></path><path d="M380.74047,350.42682h-3.01521v1.14833h1.90717l-0.12088,0.12088c-0.10073,0.56409 -0.65139,0.94687 -1.42366,0.94687c-1.15505,0 -1.6587,-0.56409 -1.6587,-1.59155c0,-1.08118 0.53723,-1.68556 1.69899,-1.68556c0.59095,0 1.06103,0.19475 1.39008,0.58424l0.88643,-0.88643c-0.48351,-0.5238 -1.30278,-0.84614 -2.28323,-0.84614c-1.90045,0 -3.02192,1.14162 -3.02192,2.83389c0,1.6587 1.09461,2.73988 2.98163,2.73988c0.55738,0 1.17519,-0.19475 1.51096,-0.48351v0.42307h1.14833z" data-paper-data="{&quot;glyphName&quot;:&quot;G&quot;,&quot;glyphIndex&quot;:30,&quot;word&quot;:6}"></path><path d="M388.59971,348.28461h-1.3095v2.92119c0,0.96702 -0.36263,1.43038 -1.32965,1.43038c-0.98716,0 -1.33636,-0.46336 -1.33636,-1.43038v-2.92119h-1.3095v2.92791c0,1.63184 0.85957,2.57871 2.64586,2.57871c1.78629,0 2.63915,-0.9603 2.63915,-2.57871z" data-paper-data="{&quot;glyphName&quot;:&quot;U&quot;,&quot;glyphIndex&quot;:31,&quot;word&quot;:6}"></path><path d="M395.52551,352.57575h-3.15623l0.11416,-0.12088v-4.17025h-1.3095v5.43946h4.35157z" data-paper-data="{&quot;glyphName&quot;:&quot;L&quot;,&quot;glyphIndex&quot;:32,&quot;word&quot;:6}"></path><path d="M402.76693,348.28461h-1.3095v2.02133l0.12088,0.12088h-2.76002l0.12088,-0.12088v-2.02133h-1.3095v5.43946h1.3095v-2.02133l-0.12088,-0.12088h2.76002l-0.12088,0.12088v2.02133h1.3095z" data-paper-data="{&quot;glyphName&quot;:&quot;H&quot;,&quot;glyphIndex&quot;:33,&quot;word&quot;:6}"></path><path d="M409.57857,351.03121c0,0.9603 -0.44322,1.60498 -1.55125,1.60498c-1.10132,0 -1.55797,-0.64468 -1.55797,-1.60498c0,-0.98045 0.45665,-1.6587 1.55797,-1.6587c1.10132,0 1.55125,0.6984 1.55125,1.6587zM410.90822,351.03121c0,-1.60498 -0.98716,-2.81375 -2.88762,-2.81375c-1.88702,0 -2.8809,1.21548 -2.8809,2.81375c0,1.61841 0.99388,2.76002 2.8809,2.76002c1.86016,0 2.88762,-1.14162 2.88762,-2.76002z" data-paper-data="{&quot;glyphName&quot;:&quot;O&quot;,&quot;glyphIndex&quot;:34,&quot;lastGlyphOfWord&quot;:true,&quot;word&quot;:6}"></path><path d="M130.37381,340.56051v-0.88378h289.25238v0.88378z" data-paper-data="{&quot;isContainerTopLineAboveSecondaryText&quot;:true}"></path></g><g data-paper-data="{&quot;isPrimaryText&quot;:true}" fill="#77c5d5" fill-rule="nonzero"><path d="M203.72336,282.21162c-8.77006,0 -16.90229,0.63782 -24.15752,1.75401c-0.95673,-0.47837 -2.15265,-0.79728 -3.66748,-0.79728c-0.63782,0 -1.51483,0.63782 -2.63102,1.83374c-24.55616,4.78367 -38.82743,13.95236 -40.50171,15.70637c-1.11619,1.03646 -2.39183,4.38503 -2.39183,7.09577c0,4.3053 18.89548,5.89986 21.92514,10.0457c-6.05931,11.00243 -10.76325,20.96841 -10.76325,23.28051c0,3.26884 5.58094,6.93632 5.58094,3.34857c0,-5.97958 20.01167,-40.50171 30.53574,-53.57707c6.05931,-0.79728 12.75644,-1.19592 19.93194,-1.19592c10.12543,0 10.20516,0.55809 11.40107,0.55809c2.63102,0 -0.47837,-8.05251 -5.26203,-8.05251zM153.8935,314.97973c-2.47156,-3.90666 -20.17113,-6.93632 -20.17113,-8.37142c0,-1.03646 11.79971,-9.32815 33.72485,-13.95236c-4.14584,6.13904 -9.08897,14.351 -13.55372,22.32378z" data-paper-data="{&quot;glyphName&quot;:&quot;T&quot;,&quot;glyphIndex&quot;:0,&quot;firstGlyphOfWord&quot;:true,&quot;word&quot;:1}"></path><path d="M190.80746,319.04585c-4.54448,5.10258 -14.27127,18.6563 -17.77929,18.6563c-0.23918,0 -0.47837,-0.15946 -0.47837,-0.71755c0,-4.14584 13.71318,-18.33739 13.71318,-21.44677c0,-1.83374 -3.18911,-5.97958 -5.26203,-5.97958c-0.63782,0 -2.23238,-0.15946 -4.22557,-0.47837c5.02285,-6.85659 9.48761,-14.03209 9.48761,-17.77929c0,-1.51483 -3.34857,-3.74721 -4.86339,-3.74721c-10.92271,0 -20.01167,13.87263 -20.01167,17.69957c0,4.46476 5.7404,5.82013 10.76325,6.61741c-2.15265,2.8702 -4.3053,5.66067 -6.13904,7.81332c-1.83374,2.15265 -0.47837,3.42829 1.35537,1.27564c2.07292,-2.39183 4.62421,-5.50122 7.09577,-8.77006c2.8702,0.31891 4.94312,0.55809 4.94312,1.19592c0,1.11619 -14.82937,16.42392 -14.82937,22.72242c0,1.27564 3.50802,6.21877 5.7404,6.21877c5.7404,0 17.38066,-16.66311 21.84541,-22.16432zM167.84586,306.36913c0,-5.42149 15.22801,-16.82256 15.22801,-13.31454c0,2.55129 -3.98639,9.16869 -8.6106,15.62664c-3.34857,-0.55809 -6.61741,-1.35537 -6.61741,-2.31211z" data-paper-data="{&quot;glyphName&quot;:&quot;r&quot;,&quot;glyphIndex&quot;:1,&quot;word&quot;:1}"></path><path d="M218.87164,319.04585c-4.06612,5.26203 -7.49441,10.0457 -10.28488,10.0457c-0.31891,0 -0.47837,-0.23918 -0.47837,-0.63782c0,-1.99319 4.3053,-8.69033 4.3053,-10.0457c0,-1.75401 -2.79047,-3.66748 -4.70394,-3.66748c-0.31891,0 -0.63782,0.39864 -1.11619,1.03646c-0.95673,1.27564 -11.79971,14.66991 -13.07536,14.66991c-0.47837,0 -0.63782,-0.39864 -0.63782,-0.79728c0,-4.38503 10.52407,-17.06174 12.35781,-17.06174c1.27564,0 1.11619,0.87701 1.99319,0.87701c0.55809,0 0.79728,-0.39864 0.79728,-0.87701c0,-1.03646 -3.02966,-4.3053 -5.42149,-4.3053c-5.26203,0 -17.46038,17.06174 -17.46038,21.92514c0,2.47156 2.07292,5.89986 4.22557,5.89986c3.50802,0 10.84298,-9.48761 14.74964,-15.06855c-0.79728,2.39183 -1.4351,4.78367 -1.4351,6.37822c0,2.07292 3.18911,4.14584 4.38503,4.14584c5.10258,0 9.16869,-5.82013 13.47399,-11.4808z" data-paper-data="{&quot;glyphName&quot;:&quot;a&quot;,&quot;glyphIndex&quot;:2,&quot;word&quot;:1}"></path><path d="M247.49392,319.04585c-4.46476,5.10258 -10.68352,13.55372 -14.90909,13.55372c-0.39864,0 -0.87701,-0.31891 -0.87701,-1.03646c0,-3.34857 7.65387,-15.06855 7.65387,-16.90229c0,-1.27564 -3.66748,-3.98639 -4.54448,-3.98639c-0.63782,0 -7.25523,8.6106 -12.75644,15.86583c3.50802,-6.29849 6.85659,-12.75644 6.85659,-14.90909c0,-1.83374 -3.82693,-4.70394 -5.02285,-4.62421c-0.31891,0 -0.39864,0.15946 -0.39864,0.63782c0,6.77686 -14.27127,25.19398 -14.27127,29.33982c0,1.83374 2.07292,4.70394 3.58775,5.50122c0.07973,0 0.07973,0 0.07973,0c0.79728,0.39864 1.35537,0 1.27564,-0.39864c0,-0.39864 0.15946,-0.79728 0.39864,-1.35537c1.59456,-2.79047 10.0457,-14.351 15.22801,-20.88868c-1.67428,3.74721 -3.10938,7.49441 -3.10938,8.92951c0,2.15265 2.71074,6.21877 5.34176,6.21877c5.18231,0 12.35781,-9.40788 16.90229,-14.82937z" data-paper-data="{&quot;glyphName&quot;:&quot;n&quot;,&quot;glyphIndex&quot;:3,&quot;word&quot;:1}"></path><path d="M263.28002,305.09349c0,-1.11619 -3.58775,-3.74721 -5.82013,-3.74721c-4.38503,0 -11.08216,8.29169 -11.08216,13.31454c0,6.37822 4.62421,11.79971 4.62421,14.03209c0,3.58775 -6.53768,5.7404 -10.0457,5.7404c-1.83374,0 -1.35537,-0.39864 -1.91347,-0.39864c-0.39864,0 -0.71755,0.23918 -0.71755,1.03646c0,1.75401 2.39183,4.3053 6.53768,4.3053c4.14584,0 10.68352,-3.82693 10.68352,-8.45114c0,-4.62421 -4.62421,-7.1755 -4.62421,-12.75644c0,-5.58094 9.96597,-12.9159 11.08216,-12.9159c0.39864,0 0.39864,0.39864 0.71755,0.39864c0.15946,0 0.55809,-0.07973 0.55809,-0.55809z" data-paper-data="{&quot;glyphName&quot;:&quot;s&quot;,&quot;glyphIndex&quot;:4,&quot;word&quot;:1}"></path><path d="M280.42149,314.023c0,3.26884 -3.82693,7.41468 -5.66067,7.41468c-1.19592,0 0.79728,2.39183 3.02966,2.39183c1.4351,0 6.61741,-4.86339 6.61741,-9.24842c0,-3.18911 -5.50122,-6.05931 -6.77686,-6.05931c-9.00924,0 -19.45358,17.2212 -19.45358,22.72242c0,4.54448 4.54448,8.29169 6.69713,8.29169c9.48761,0 24.3967,-19.37385 24.3967,-19.37385l-1.4351,-1.11619c0,0 -14.90909,17.54011 -22.88187,17.54011c-0.95673,0 -1.35537,-0.79728 -1.35537,-1.59456c0,-6.13904 11.00243,-21.76568 15.70637,-21.76568c0.71755,0 1.11619,0.23918 1.11619,0.79728z" data-paper-data="{&quot;glyphName&quot;:&quot;c&quot;,&quot;glyphIndex&quot;:5,&quot;word&quot;:1}"></path><path d="M310.55859,319.04585c-4.46476,5.10258 -12.59699,13.07536 -18.57657,13.07536c-0.47837,0 -0.95673,-0.63782 -0.95673,-1.75401c0,-1.59456 0.63782,-3.66748 1.67428,-5.7404c0.47837,0.47837 1.19592,0.87701 1.91347,0.87701c3.66748,0 11.87944,-7.41468 11.87944,-11.4808c0,-1.99319 -4.14584,-6.45795 -7.33496,-6.45795c-1.91347,0 -13.87263,10.68352 -13.87263,19.21439c0,3.58775 5.10258,7.73359 7.73359,7.73359c5.66067,0 14.43073,-8.92951 18.97521,-14.351zM303.38309,312.50817c3.18911,0 -4.86339,9.56733 -9.96597,10.76325c2.8702,-5.34176 7.65387,-10.76325 9.96597,-10.76325z" data-paper-data="{&quot;glyphName&quot;:&quot;e&quot;,&quot;glyphIndex&quot;:6,&quot;word&quot;:1}"></path><path d="M339.18086,319.04585c-4.46476,5.10258 -10.68352,13.55372 -14.90909,13.55372c-0.39864,0 -0.87701,-0.31891 -0.87701,-1.03646c0,-3.34857 7.65387,-15.06855 7.65387,-16.90229c0,-1.27564 -3.66748,-3.98639 -4.54448,-3.98639c-0.63782,0 -7.25523,8.6106 -12.75644,15.86583c3.50802,-6.29849 6.85659,-12.75644 6.85659,-14.90909c0,-1.83374 -3.82693,-4.70394 -5.02285,-4.62421c-0.31891,0 -0.39864,0.15946 -0.39864,0.63782c0,6.77686 -14.27127,25.19398 -14.27127,29.33982c0,1.83374 2.07292,4.70394 3.58775,5.50122c0.07973,0 0.07973,0 0.07973,0c0.79728,0.39864 1.35537,0 1.27564,-0.39864c0,-0.39864 0.15946,-0.79728 0.39864,-1.35537c1.59456,-2.79047 10.0457,-14.351 15.22801,-20.88868c-1.67428,3.74721 -3.10938,7.49441 -3.10938,8.92951c0,2.15265 2.71074,6.21877 5.34176,6.21877c5.18231,0 12.35781,-9.40788 16.90229,-14.82937z" data-paper-data="{&quot;glyphName&quot;:&quot;n&quot;,&quot;glyphIndex&quot;:7,&quot;word&quot;:1}"></path><path d="M371.31116,319.04585c-4.46476,5.10258 -9.72679,11.71998 -12.51726,11.71998c-0.55809,0 -0.71755,-0.39864 -0.71755,-0.95673c0,-6.61741 14.74964,-25.43316 14.74964,-26.78853c0,-4.38503 -4.62421,-6.21877 -5.58094,-5.26203c-0.31891,0.31891 -0.79728,1.91347 -2.07292,3.98639c-1.75401,2.71074 -4.38503,6.53768 -7.33496,10.52407c-0.15946,-0.95673 -3.02966,-4.38503 -5.82013,-4.38503c-6.29849,0 -18.73603,17.77929 -18.73603,23.67915c0,3.10938 4.38503,6.29849 6.05931,6.29849c0.07973,0 0.15946,0 0.15946,0c1.75401,-0.71755 8.92951,-10.12543 15.62664,-19.45358c-2.15265,3.82693 -3.74721,7.1755 -3.74721,8.69033c0,4.46476 5.42149,6.69713 7.41468,6.69713c2.47156,0 9.40788,-8.21196 13.95236,-13.63345zM339.89841,334.35358c-3.10938,0 11.64026,-22.48323 15.46719,-22.48323c0.63782,0 0.87701,0.23918 0.87701,0.79728c0,0.55809 0.39864,0.79728 0.79728,0.71755c-7.33496,9.96597 -16.10501,20.96841 -17.14147,20.96841z" data-paper-data="{&quot;glyphName&quot;:&quot;d&quot;,&quot;glyphIndex&quot;:8,&quot;word&quot;:1}"></path><path d="M394.03358,319.04585c-4.46476,5.10258 -12.59699,13.07536 -18.57657,13.07536c-0.47837,0 -0.95673,-0.63782 -0.95673,-1.75401c0,-1.59456 0.63782,-3.66748 1.67428,-5.7404c0.47837,0.47837 1.19592,0.87701 1.91347,0.87701c3.66748,0 11.87944,-7.41468 11.87944,-11.4808c0,-1.99319 -4.14584,-6.45795 -7.33496,-6.45795c-1.91347,0 -13.87263,10.68352 -13.87263,19.21439c0,3.58775 5.10258,7.73359 7.73359,7.73359c5.66067,0 14.43073,-8.92951 18.97521,-14.351zM386.85807,312.50817c3.18911,0 -4.86339,9.56733 -9.96597,10.76325c2.8702,-5.34176 7.65387,-10.76325 9.96597,-10.76325z" data-paper-data="{&quot;glyphName&quot;:&quot;e&quot;,&quot;glyphIndex&quot;:9,&quot;word&quot;:1}"></path><path d="M418.27082,319.04585c-4.54448,5.10258 -14.27127,18.6563 -17.77929,18.6563c-0.23918,0 -0.47837,-0.15946 -0.47837,-0.71755c0,-4.14584 13.71318,-18.33739 13.71318,-21.44677c0,-1.83374 -3.18911,-5.97958 -5.26203,-5.97958c-0.63782,0 -2.23238,-0.15946 -4.22557,-0.47837c5.02285,-6.85659 9.48761,-14.03209 9.48761,-17.77929c0,-1.51483 -3.34857,-3.74721 -4.86339,-3.74721c-10.92271,0 -20.01167,13.87263 -20.01167,17.69957c0,4.46476 5.7404,5.82013 10.76325,6.61741c-2.15265,2.8702 -4.3053,5.66067 -6.13904,7.81332c-1.83374,2.15265 -0.47837,3.42829 1.35537,1.27564c2.07292,-2.39183 4.62421,-5.50122 7.09577,-8.77006c2.8702,0.31891 4.94312,0.55809 4.94312,1.19592c0,1.11619 -14.82937,16.42392 -14.82937,22.72242c0,1.27564 3.50802,6.21877 5.7404,6.21877c5.7404,0 17.38066,-16.66311 21.84541,-22.16432zM395.30922,306.36913c0,-5.42149 15.22801,-16.82256 15.22801,-13.31454c0,2.55129 -3.98639,9.16869 -8.6106,15.62664c-3.34857,-0.55809 -6.61741,-1.35537 -6.61741,-2.31211z" data-paper-data="{&quot;glyphName&quot;:&quot;r&quot;,&quot;glyphIndex&quot;:10,&quot;lastGlyphOfWord&quot;:true,&quot;word&quot;:1}"></path></g><g data-paper-data="{&quot;fillRule&quot;:&quot;evenodd&quot;,&quot;fillRuleOriginal&quot;:&quot;evenodd&quot;,&quot;isIcon&quot;:true,&quot;iconStyle&quot;:&quot;standalone&quot;,&quot;selectedEffects&quot;:{&quot;container&quot;:&quot;&quot;,&quot;transformation&quot;:&quot;&quot;,&quot;pattern&quot;:&quot;&quot;},&quot;bounds&quot;:{&quot;x&quot;:211.84017906328063,&quot;y&quot;:114.99999999999999,&quot;width&quot;:126.31964187343874,&quot;height&quot;:137.08718737222904},&quot;iconType&quot;:&quot;icon&quot;,&quot;isDetailed&quot;:false,&quot;source&quot;:&quot;noun&quot;,&quot;rawIconId&quot;:&quot;4847066&quot;,&quot;suitableAsStandaloneIcon&quot;:true}" fill-rule="evenodd"><g data-paper-data="{&quot;isPathIcon&quot;:true}"><path d="M333.77535,115c2.598,0 4.76201,2.165 4.32901,4.76201v22.07803c0,2.598 -2.164,4.76201 -4.76201,4.76201c-2.597,0 -4.76201,-2.164 -4.76201,-4.76201v-10.67801l-27.27304,27.27304c4.18501,5.48301 6.63801,12.41002 6.63801,19.76903c0,16.59502 -12.26502,30.44804 -28.28304,32.75704v17.31602h7.93701c2.597,0 4.76201,2.165 4.76201,4.76201c0,2.597 -2.165,4.76201 -4.76201,4.76201h-7.93701v9.52401c0,2.597 -2.164,4.76201 -4.76201,4.76201c-2.597,0 -4.76201,-2.165 -4.76201,-4.76201v-9.52401h-7.93601c-2.598,0 -4.76201,-2.165 -4.76201,-4.76201c0,-2.597 2.164,-4.76201 4.76201,-4.76201h7.93601v-17.17202c-16.01702,-2.453 -28.28304,-16.16202 -28.28304,-32.75604c0,-7.50401 2.453,-14.28602 6.63801,-19.77003l-7.93701,-7.93601l-3.89601,3.89601c-0.866,1.01 -2.164,1.443 -3.319,1.443c-1.154,0 -2.453,-0.577 -3.319,-1.443c-1.876,-1.876 -1.876,-4.90701 0,-6.78201l3.89601,-3.89701l-12.55402,-12.55402v10.67801c0,2.598 -2.164,4.76201 -4.76201,4.76201c-2.597,0 -4.76201,-2.164 -4.76201,-4.76201v-22.22203c0,-2.597 2.165,-4.76201 4.76201,-4.76201h22.22303c2.597,0 4.76201,2.165 4.76201,4.76201c0,2.597 -2.165,4.76201 -4.76201,4.76201h-10.67901l12.55502,12.55402l3.89601,-3.89601c1.876,-1.876 4.90601,-1.876 6.78201,0c1.876,1.876 1.876,4.90601 0,6.78201l-3.89601,3.89601l7.93601,7.93701c5.48401,-4.18501 12.26602,-6.63801 19.77003,-6.63801c7.50301,0 14.28602,2.453 19.76903,6.63801l27.12904,-27.27304h-10.67801c-2.598,0 -4.76201,-2.165 -4.76201,-4.76201c0,-2.597 2.164,-4.76201 4.76201,-4.76201zM281.97127,196.96411l-0.289,4.32901c10.10101,-2.886 17.60502,-11.97802 17.74902,-23.37703c0,-13.27602 -10.82201,-24.09903 -24.09803,-24.09903c-13.27602,0 -24.09803,10.82301 -24.09803,24.09903c0,11.11102 7.64801,20.34603 17.89302,23.08803l-0.289,-4.61801c-0.144,-0.866 -0.432,-1.587 -1.01,-2.309l-4.90601,-5.48301c-1.587,-1.876 -2.309,-4.32901 -2.02,-6.78201l0.721,-5.77201c0.289,-1.876 1.876,-3.175 3.75201,-3.175l7.07101,0.144c1.01,0.145 1.876,1.011 1.876,2.021c0,0.577 -0.144,1.01 -0.577,1.443c-0.433,0.433 -0.866,0.577 -1.443,0.577l-4.76201,-0.144c-0.433,0 -0.866,0.432 -1.01,0.865l-0.433,3.031c-0.145,0.721 0.433,1.298 1.154,1.154c0.433,-0.144 0.722,-0.433 0.722,-0.866l0.288,-1.876l0.433,0.145c4.87201,2.227 4.64201,7.00501 4.61901,7.47001c-0.001,0.017 -0.001,0.028 -0.001,0.033c0,0.578 0.288,1.155 0.866,1.155h0.144c0.577,0 1.01,-0.289 1.01,-0.866c0.289,-2.02 -0.289,-5.05101 -2.597,-7.35901l-0.578,-0.578h0.578c0.865,0 1.731,-0.433 2.308,-1.01c0.289,-0.144 0.578,-0.433 0.722,-0.866l0.144,-0.288l0.289,0.144c0.577,0.433 1.443,0.722 2.164,0.722c1.299,0 2.454,-0.578 3.175,-1.588l0.289,-0.288l0.288,0.144c0.722,0.433 1.443,0.722 2.309,0.722c0.577,0 1.154,-0.145 1.732,-0.433l0.433,-0.145l0.144,0.433c0.577,3.608 0.721,7.21501 0.721,9.95701v0.722c0,2.741 -1.298,5.05001 -3.607,6.49301c-1.155,0.577 -1.876,1.732 -1.876,3.031z" fill="#77c5d5"></path><path d="M270.57126,166.51607c0,-1.155 0.866,-2.02 2.02,-2.02c1.01,0 2.021,0.865 2.021,2.02v5.48301l-0.578,-0.288c-0.577,-0.289 -1.01,-0.433 -1.587,-0.433h-1.876z" fill="#e56db1"></path><path d="M264.65525,167.38207c0,-1.155 0.866,-2.021 2.02,-2.021c1.01,0 1.876,1.01 2.02,2.021v3.75101h-4.04001z" fill="#e56db1"></path><path d="M276.48727,167.38207c0,-1.155 0.866,-2.021 2.021,-2.021c1.154,0 2.02,1.01 2.02,2.021v6.34901c0,1.154 -0.866,2.02 -2.02,2.02c-1.155,0 -2.021,-0.866 -2.021,-2.02z" fill="#e56db1"></path><path d="M284.42428,166.22707c-1.154,0 -2.02,0.866 -2.02,2.02v4.61801c0,1.155 0.866,2.02 2.02,2.02c1.154,0 2.02,-0.865 2.02,-2.02v-4.61801c0,-1.01 -0.866,-2.02 -2.02,-2.02z" fill="#e56db1"></path></g></g></g></g><g class="watermark-group" style="opacity:0.10; stroke: white; stroke-width: 2; stroke-opacity: 0.7;"><path class="watermark-path" d="M129.52,370.3a11.88,11.88,0,0,1,2.58,5.58,12,12,0,0,1,.11,3,11.81,11.81,0,0,1-.64,2.93,12.34,12.34,0,0,1-1.41,2.72,11.65,11.65,0,0,1-2.13,2.32,12,12,0,0,1-2.64,1.69,13,13,0,0,1-2.91.9,12.47,12.47,0,0,1-3,.12,12.17,12.17,0,0,1-2.93-.64,11.8,11.8,0,0,1-2.72-1.38,12.19,12.19,0,0,1-4-4.79,11.85,11.85,0,0,1-.89-2.92,12.14,12.14,0,0,1-.13-3,11.54,11.54,0,0,1,.64-2.92,11.67,11.67,0,0,1,3.5-5,11.44,11.44,0,0,1,2.67-1.69,11.64,11.64,0,0,1,2.92-.91,10.71,10.71,0,0,1,3-.12,11.68,11.68,0,0,1,5.66,2,11.7,11.7,0,0,1,2.34,2.12m-1.4,8.76a13,13,0,0,1-1.22,2.32,9.68,9.68,0,0,1-1.81,2,7.44,7.44,0,0,1-2.38,1.37,6.17,6.17,0,0,1-5.11-.46,8.73,8.73,0,0,1-3.85-4.58,6.69,6.69,0,0,1-.34-2.66,6.09,6.09,0,0,1,.77-2.47,7.15,7.15,0,0,1,1.75-2.11,9.58,9.58,0,0,1,1.09-.81,8.23,8.23,0,0,1,1.12-.63,8.14,8.14,0,0,1,1.19-.46,12.71,12.71,0,0,1,1.32-.37l2,2.38a12.83,12.83,0,0,0-1.56.17,7.86,7.86,0,0,0-1.23.32,4.5,4.5,0,0,0-1,.49,6.41,6.41,0,0,0-.93.67,4.49,4.49,0,0,0-1.15,1.39,3.87,3.87,0,0,0-.45,1.58,4.12,4.12,0,0,0,.26,1.63,6.11,6.11,0,0,0,2.36,2.82,4.43,4.43,0,0,0,1.57.53,3.91,3.91,0,0,0,1.62-.17,4.71,4.71,0,0,0,1.57-.89,10.5,10.5,0,0,0,.83-.79,5.71,5.71,0,0,0,.65-.93,10.13,10.13,0,0,0,.54-1.14,12.24,12.24,0,0,0,.44-1.49l2,2.33m-14.46,4.55a8.86,8.86,0,0,0,2.78,2.22,9,9,0,0,0,3.29.94,9.15,9.15,0,0,0,3.39-.37,8.68,8.68,0,0,0,3.11-1.69,8.8,8.8,0,0,0,2.22-2.78,9.15,9.15,0,0,0,1-3.29,8.95,8.95,0,0,0-4.83-8.76,9,9,0,0,0-6.73-.57,9,9,0,0,0-5.33,4.47,8.94,8.94,0,0,0-.57,6.71,8.76,8.76,0,0,0,1.7,3.12"></path><path class="watermark-path" d="M147,349c-.48.12-1.09.31-1.82.57a24.37,24.37,0,0,0-2.4,1A28.35,28.35,0,0,0,140,352a20.72,20.72,0,0,0-2.71,1.94c-.7.59-1.28,1.11-1.74,1.57a15.07,15.07,0,0,0-1.1,1.22,4.09,4.09,0,0,0-.59.92,2.32,2.32,0,0,0-.22.64,1.16,1.16,0,0,0,0,.47,1.83,1.83,0,0,0,.18.29,1.15,1.15,0,0,0,1,.37,5.54,5.54,0,0,0,1.51-.38q.87-.35,1.95-.9l2.26-1.18q1.2-.65,2.49-1.29c.87-.44,1.73-.83,2.59-1.17a18.94,18.94,0,0,1,2.6-.81,9.27,9.27,0,0,1,2.46-.29,6.25,6.25,0,0,1,2.24.49,5.12,5.12,0,0,1,1.89,1.47,6.35,6.35,0,0,1,1.41,2.61,6,6,0,0,1,.09,2.6,8.3,8.3,0,0,1-.9,2.52,17.79,17.79,0,0,1-1.62,2.37,23.92,23.92,0,0,1-2,2.15c-.72.67-1.41,1.29-2.09,1.87a33.79,33.79,0,0,1-5.33,3.7,32.29,32.29,0,0,1-4.91,2.28l-3.61-4.3a21.38,21.38,0,0,0,5.39-1.87,27.2,27.2,0,0,0,5.4-3.56,21.59,21.59,0,0,0,2.38-2.27,8.67,8.67,0,0,0,1.18-1.7,2.32,2.32,0,0,0,.27-1.19,1.34,1.34,0,0,0-.28-.74,1.21,1.21,0,0,0-1-.42,4.32,4.32,0,0,0-1.55.34,15.77,15.77,0,0,0-2,.88c-.72.37-1.48.77-2.27,1.21l-2.45,1.3c-.85.45-1.7.85-2.56,1.21a22.37,22.37,0,0,1-2.54.86,10,10,0,0,1-2.43.32,5.76,5.76,0,0,1-2.2-.45,5,5,0,0,1-1.89-1.45,6.12,6.12,0,0,1-1.31-2.41,6,6,0,0,1-.1-2.41,8.28,8.28,0,0,1,.81-2.38,14.06,14.06,0,0,1,1.49-2.24,22.37,22.37,0,0,1,1.85-2.05q1-1,2-1.77c.7-.59,1.44-1.15,2.23-1.7s1.62-1.06,2.44-1.53,1.63-.91,2.43-1.3,1.58-.75,2.3-1L147,349"></path><path class="watermark-path" d="M186.76,337.57l-10.6-12.63,3.92,18.24-4.66,3.91-17.27-7,10.6,12.63-4.86,4.07-15.09-18,6.59-5.54,18.69,7.52-4.15-19.71,6.57-5.52,15.09,18-4.83,4.05"></path><path class="watermark-path" d="M208.84,313.24l-10,8.42,1.16,4.82L194.56,331l-5.68-25.89,5.42-4.55,24.51,10.09-5.42,4.55-4.55-2m-11.23,3.45,6.57-5.52-8.83-3.87,2.26,9.39"></path><path class="watermark-path" d="M227.49,281.38c-.48.12-1.09.31-1.82.57a24.37,24.37,0,0,0-2.4,1,26.11,26.11,0,0,0-2.7,1.47,20.72,20.72,0,0,0-2.71,1.94c-.7.59-1.28,1.11-1.74,1.57a13.39,13.39,0,0,0-1.1,1.22,4.29,4.29,0,0,0-.59.91,2.48,2.48,0,0,0-.22.65,1.16,1.16,0,0,0,0,.47,1.83,1.83,0,0,0,.18.29,1.15,1.15,0,0,0,1,.37,5.54,5.54,0,0,0,1.51-.38q.87-.34,2-.9l2.26-1.18q1.2-.64,2.49-1.29c.87-.44,1.73-.83,2.59-1.17a18.94,18.94,0,0,1,2.6-.81,9.27,9.27,0,0,1,2.46-.29,6.08,6.08,0,0,1,2.24.49,5.09,5.09,0,0,1,1.89,1.46,6.47,6.47,0,0,1,1.41,2.61,6.07,6.07,0,0,1,.09,2.61,8.3,8.3,0,0,1-.9,2.52,16.32,16.32,0,0,1-1.63,2.36,21.41,21.41,0,0,1-2,2.16c-.72.67-1.41,1.29-2.1,1.86a33.36,33.36,0,0,1-5.32,3.71,31.92,31.92,0,0,1-4.92,2.28l-3.6-4.3a21.38,21.38,0,0,0,5.39-1.87,27.2,27.2,0,0,0,5.4-3.56,21.59,21.59,0,0,0,2.38-2.27,8.67,8.67,0,0,0,1.18-1.7A2.32,2.32,0,0,0,231,293a1.34,1.34,0,0,0-.28-.74,1.21,1.21,0,0,0-1-.42,4.32,4.32,0,0,0-1.55.34,16.54,16.54,0,0,0-2,.88c-.71.37-1.47.77-2.26,1.21l-2.46,1.3c-.84.44-1.7.85-2.55,1.21a24.53,24.53,0,0,1-2.54.86A10,10,0,0,1,214,298a5.76,5.76,0,0,1-2.2-.45,5,5,0,0,1-1.89-1.45,6.12,6.12,0,0,1-1.31-2.41,5.78,5.78,0,0,1-.1-2.41,8,8,0,0,1,.81-2.38,14.61,14.61,0,0,1,1.49-2.25,22.26,22.26,0,0,1,1.85-2q1-1,2-1.77c.7-.59,1.44-1.15,2.23-1.7s1.62-1.06,2.44-1.53,1.63-.91,2.43-1.31,1.58-.74,2.3-1l3.5,4.16"></path><path class="watermark-path" d="M261.64,274.74l-6.29-7.5L243,277.61l6.3,7.5-4.86,4.07-15.09-18,4.85-4.08,5.49,6.55L252,263.3l-5.49-6.55,4.86-4.07,15.09,18-4.86,4.08"></path><path class="watermark-path" d="M272.18,265.9l-15.09-18,4.86-4.08,15.09,18-4.86,4.08"></path><path class="watermark-path" d="M299.65,242.85l-22.51-2.18L287.51,253l-4.85,4.08-15.1-18,5.28-4.43,22.56,2.22L285,224.5l4.83-4.06,15.09,18-5.26,4.42"></path><path class="watermark-path" d="M306.68,205.52a31.88,31.88,0,0,1,5.29-3.66,34.48,34.48,0,0,1,5.14-2.35l3.69,4.39a20.77,20.77,0,0,0-2.37.61,20.47,20.47,0,0,0-2.61,1,25.12,25.12,0,0,0-2.76,1.49,23.9,23.9,0,0,0-2.8,2,20.42,20.42,0,0,0-2.8,2.77,12.77,12.77,0,0,0-1.64,2.52,7,7,0,0,0-.68,2.24,6,6,0,0,0,.66,3.64,8.16,8.16,0,0,0,.94,1.38,9.12,9.12,0,0,0,1.08,1.07,6.39,6.39,0,0,0,1.47.91,6.73,6.73,0,0,0,1.88.48,6.54,6.54,0,0,0,2.28-.18,11.67,11.67,0,0,0,2.74-1.07,19.38,19.38,0,0,0,3.18-2.22c.57-.48,1.06-.92,1.46-1.31a14.57,14.57,0,0,0,1-1.13,11.46,11.46,0,0,0,.81-1.05l.74-1.09-1.82-2.17-5.45,4.57-3.31-3.94,10.31-8.65,7.71,9.19a29,29,0,0,1-1.67,2.43q-1,1.26-2.1,2.52c-.74.84-1.5,1.65-2.3,2.44s-1.58,1.5-2.33,2.14a31,31,0,0,1-3.59,2.61,22.55,22.55,0,0,1-3.64,1.83,15.64,15.64,0,0,1-3.63.89,10.72,10.72,0,0,1-3.49-.15,10.45,10.45,0,0,1-3.28-1.33,12.54,12.54,0,0,1-3-2.67,12,12,0,0,1-2.08-3.44,10.45,10.45,0,0,1-.71-3.5,11.14,11.14,0,0,1,.51-3.51,15.72,15.72,0,0,1,1.56-3.43,21.62,21.62,0,0,1,2.42-3.28,30.3,30.3,0,0,1,3.15-3"></path><path class="watermark-path" d="M336.91,211.59l-15.1-18,4.86-4.08,11.79,14,13.13-11,3.31,3.94-18,15.1"></path><path class="watermark-path" d="M374.54,164.71a12.28,12.28,0,0,1,2.59,4.81,10.44,10.44,0,0,1,0,5,14.62,14.62,0,0,1-2.33,5,25.55,25.55,0,0,1-4.56,4.85,26.07,26.07,0,0,1-5.6,3.67,14.79,14.79,0,0,1-5.38,1.43,10.43,10.43,0,0,1-4.94-.89,13.24,13.24,0,0,1-6.87-8.18,10.48,10.48,0,0,1,0-5,14.51,14.51,0,0,1,2.36-5,25.23,25.23,0,0,1,4.57-4.89,25,25,0,0,1,5.59-3.64,14.45,14.45,0,0,1,5.35-1.43,10.31,10.31,0,0,1,4.93.92,12.22,12.22,0,0,1,4.28,3.38m-4.91,4.11a8.36,8.36,0,0,0-2-1.72,5.5,5.5,0,0,0-2.65-.85,7.72,7.72,0,0,0-3.32.57,14.49,14.49,0,0,0-4,2.52,16.72,16.72,0,0,0-2.38,2.4,10.15,10.15,0,0,0-1.39,2.24,6.71,6.71,0,0,0-.56,2.1,5.69,5.69,0,0,0,.1,1.9,6.21,6.21,0,0,0,.61,1.69,9.85,9.85,0,0,0,1,1.44,10.48,10.48,0,0,0,1.26,1.23,6.67,6.67,0,0,0,1.57.92,6.1,6.1,0,0,0,1.85.41,6.8,6.8,0,0,0,2.15-.2,11.06,11.06,0,0,0,2.45-1,17.67,17.67,0,0,0,2.77-1.94,14.39,14.39,0,0,0,3.18-3.52,7.74,7.74,0,0,0,1.14-3.17,5.54,5.54,0,0,0-.37-2.74,8.52,8.52,0,0,0-1.36-2.3"></path><path class="watermark-path" d="M382.66,141.76A32.3,32.3,0,0,1,388,138.1a34.12,34.12,0,0,1,5.15-2.35l3.69,4.4a19.62,19.62,0,0,0-2.37.6,22.08,22.08,0,0,0-2.61,1,26,26,0,0,0-2.77,1.49,23.9,23.9,0,0,0-2.8,2,21,21,0,0,0-2.8,2.78,13.19,13.19,0,0,0-1.64,2.51,7.29,7.29,0,0,0-.68,2.24,6.36,6.36,0,0,0,.06,2,5.8,5.8,0,0,0,.61,1.68,8.12,8.12,0,0,0,.93,1.38,9.16,9.16,0,0,0,1.08,1.08,6.56,6.56,0,0,0,1.48.9,6,6,0,0,0,1.87.48,6.76,6.76,0,0,0,2.28-.17,12,12,0,0,0,2.74-1.08,18.57,18.57,0,0,0,3.18-2.22c.58-.48,1.06-.92,1.46-1.31s.75-.77,1.05-1.12.57-.72.81-1.06l.73-1.09-1.82-2.17-5.45,4.57-3.3-3.94,10.3-8.65,7.71,9.19a29,29,0,0,1-1.67,2.43q-1,1.26-2.1,2.52c-.73.84-1.5,1.66-2.3,2.44s-1.57,1.5-2.33,2.14a31,31,0,0,1-3.59,2.61,22.15,22.15,0,0,1-3.64,1.83,15.56,15.56,0,0,1-3.62.89,11,11,0,0,1-3.49-.14,10.84,10.84,0,0,1-3.28-1.33,12.82,12.82,0,0,1-3-2.68,12.12,12.12,0,0,1-2.08-3.43A10.71,10.71,0,0,1,375,155a11.18,11.18,0,0,1,.51-3.51,15.51,15.51,0,0,1,1.57-3.43,21.44,21.44,0,0,1,2.42-3.28,30.19,30.19,0,0,1,3.14-3"></path><path class="watermark-path" d="M428.63,119.31a12.26,12.26,0,0,1,2.59,4.82,10.44,10.44,0,0,1,0,5,14.53,14.53,0,0,1-2.34,5,25.29,25.29,0,0,1-4.56,4.86,26,26,0,0,1-5.59,3.67,14.84,14.84,0,0,1-5.38,1.43,10.61,10.61,0,0,1-4.95-.89,12.15,12.15,0,0,1-4.3-3.37,12,12,0,0,1-2.56-4.81,10.48,10.48,0,0,1,0-5,14.39,14.39,0,0,1,2.35-5,27.89,27.89,0,0,1,10.16-8.53,14.49,14.49,0,0,1,5.36-1.43,10.27,10.27,0,0,1,4.92.92,12.21,12.21,0,0,1,4.28,3.37m-4.91,4.12a8.17,8.17,0,0,0-2-1.72,5.58,5.58,0,0,0-2.65-.86,7.86,7.86,0,0,0-3.31.58,14.49,14.49,0,0,0-4,2.52,16.21,16.21,0,0,0-2.38,2.4,9.85,9.85,0,0,0-1.4,2.24,7,7,0,0,0-.56,2.1,6,6,0,0,0,.1,1.9,6.23,6.23,0,0,0,.62,1.69,8.49,8.49,0,0,0,1,1.44,9.18,9.18,0,0,0,1.26,1.23,6.67,6.67,0,0,0,1.57.92,6,6,0,0,0,1.84.41,6.86,6.86,0,0,0,2.16-.2,11.26,11.26,0,0,0,2.45-1,17.62,17.62,0,0,0,2.76-1.94,14.67,14.67,0,0,0,3.19-3.52,7.71,7.71,0,0,0,1.13-3.17,5.53,5.53,0,0,0-.36-2.74,8.55,8.55,0,0,0-1.37-2.3"></path></g></svg>